<?xml version="1.0" encoding="utf-8"?>
<!-- Generator: Adobe Illustrator 20.1.0, SVG Export Plug-In . SVG Version: 6.00 Build 0)  -->
<svg version="1.1" id="Layer_1" xmlns="http://www.w3.org/2000/svg" xmlns:xlink="http://www.w3.org/1999/xlink" x="0px" y="0px"
	 viewBox="0 0 224 200" style="enable-background:new 0 0 224 200;" xml:space="preserve">
<style type="text/css">
	.st0{fill:#EE2C26;}
	.st1{fill:none;stroke:#EE2C26;stroke-miterlimit:10;}
	.st2{stroke:#000000;stroke-miterlimit:10;}
	.st3{fill:none;}
	.st4{fill:#5ABEEC;}
	.st5{fill:#F3EB3C;}
	.st6{fill:#FFFFFF;}
	.st7{fill:#76CDF0;}
</style>
<g>
	<path class="st2" d="M182.1,126.9H162c-9.4,0-17-7.6-17-17V44.1h54v65.8C199.1,119.3,191.5,126.9,182.1,126.9z"/>
	<path class="st3" d="M174.1,36.1c-0.6,0.4-1.3,0.6-2,0.6c-0.4,0-0.7-0.1-1.1-0.2l-5.3,7.2h13.9L174.1,36.1z"/>
	<circle class="st3" cx="186.1" cy="51.8" r="2.9"/>
	<path class="st3" d="M198.7,104.6V55.4c-2.1,3.5-7.5,4.1-7.8,4.1l-35.9,0c-6,0-8.5-2.2-9.6-3.9v48.9h5.4V68.9
		c0-2.3,1.9-4.2,4.2-4.2h33.7c2.3,0,4.2,1.9,4.2,4.2v35.6H198.7z"/>
	<path class="st3" d="M188.8,65.4H155c-1.9,0-3.5,1.6-3.5,3.5v36.8c0,1.9,1.6,3.5,3.5,3.5h33.7c1.9,0,3.5-1.6,3.5-3.5V68.9
		C192.2,67,190.7,65.4,188.8,65.4z"/>
	<path class="st3" d="M193,105.3v0.4c0,2.3-1.9,4.2-4.2,4.2H155c-2.3,0-4.2-1.9-4.2-4.2v-0.4h-5.4v4.6c0,9.2,7.4,16.6,16.6,16.6
		h20.1c9.2,0,16.6-7.4,16.6-16.6v-4.6H193z"/>
	<path class="st3" d="M155,58.8h35.8c0,0,7.1-0.8,7.8-5.6v-8.7h-53.3v9.4C145.5,54.3,146.8,58.8,155,58.8z M186.1,48.2
		c2,0,3.6,1.6,3.6,3.6c0,2-1.6,3.6-3.6,3.6c-2,0-3.6-1.6-3.6-3.6C182.4,49.8,184,48.2,186.1,48.2z M158.2,48.2c2,0,3.6,1.6,3.6,3.6
		c0,2-1.6,3.6-3.6,3.6s-3.6-1.6-3.6-3.6C154.5,49.8,156.2,48.2,158.2,48.2z"/>
	<circle class="st3" cx="158.2" cy="51.8" r="2.9"/>
	<path class="st4" d="M188.8,64.7H155c-2.3,0-4.2,1.9-4.2,4.2v35.6h-5.4V55.6c1.1,1.6,3.7,3.9,9.6,3.9l35.9,0c0.3,0,5.7-0.6,7.8-4.1
		v49.2H193V68.9C193,66.6,191.1,64.7,188.8,64.7z"/>
	<path class="st5" d="M192.2,68.9v36.8c0,1.9-1.6,3.5-3.5,3.5H155c-1.9,0-3.5-1.6-3.5-3.5V68.9c0-1.9,1.6-3.5,3.5-3.5h33.7
		C190.7,65.4,192.2,67,192.2,68.9z"/>
	<path class="st5" d="M182.1,126.5H162c-9.2,0-16.6-7.4-16.6-16.6v-4.6h5.4v0.4c0,2.3,1.9,4.2,4.2,4.2h33.7c2.3,0,4.2-1.9,4.2-4.2
		v-0.4h5.7v4.6C198.7,119.1,191.2,126.5,182.1,126.5z"/>
	<circle class="st6" cx="158.2" cy="51.8" r="2.7"/>
	<path class="st4" d="M145.4,44.5v9.4c0.1,0.5,1.4,4.9,9.6,4.9h35.8c0,0,7.1-0.8,7.8-5.6v-8.7H145.4z M158.2,55.5
		c-2,0-3.6-1.6-3.6-3.6c0-2,1.6-3.6,3.6-3.6s3.6,1.6,3.6,3.6C161.8,53.8,160.2,55.5,158.2,55.5z M186.1,55.5c-2,0-3.6-1.6-3.6-3.6
		c0-2,1.6-3.6,3.6-3.6c2,0,3.6,1.6,3.6,3.6C189.7,53.8,188.1,55.5,186.1,55.5z"/>
	<circle class="st6" cx="186.1" cy="51.8" r="2.7"/>
	<polygon points="165.6,43.8 165,43.4 172.8,32.9 180.3,43.4 179.7,43.8 172.8,34.2 	"/>
	<circle cx="172.1" cy="32.9" r="3.8"/>
	<path d="M108.2,71.5c-1.1,0-2-0.3-2.6-1c-2.8-3.1,0.8-12.3,2-15.3c1.9-4.8,4.1-9.7,6.7-14.5l0.3-0.5c5.6-10.4,14.1-26,25.8-29.3
		c4.6-1.3,9.3-0.6,14,2.2c6.7,3.9,12.8,9.7,18.2,17.4l-0.6,0.4c-5.3-7.5-11.4-13.3-18-17.1c-4.5-2.6-9-3.3-13.4-2.1
		c-11.5,3.2-19.8,18.7-25.4,29l-0.3,0.5c-2.6,4.7-4.8,9.6-6.7,14.4c-3.1,7.8-3.8,12.7-2.1,14.5c0.8,0.8,2.1,1,4,0.4
		c6.5-1.9,10.7-8.1,14.5-13.7l0.8-1.2c3.7-5.4,8-12.7,8.3-21c0.4-13.2,10.8-14.3,10.9-14.3c0.3,0,0.6,0,0.9,0
		c15.2,0,24.7,9,24.8,9.1L170,30c-0.1-0.1-9.5-8.9-24.3-8.9c-0.3,0-0.6,0-0.9,0c-0.4,0-9.8,1-10.2,13.5c-0.3,8.4-4.6,15.9-8.4,21.4
		l-0.8,1.2c-3.8,5.7-8.2,12.1-14.9,14C109.6,71.4,108.9,71.5,108.2,71.5z"/>
</g>
<g>
	<g>
		<path class="st7" d="M24.7,35.5c1.4,0.3,3.1,0.9,4.2,1.4l-0.7,1.4c-1-0.5-2.8-1.1-4.1-1.5L24.7,35.5z M25.4,43.1
			c5-1.6,8.5-4.3,10.7-9c0.3,0.3,1,0.8,1.4,1c-2.1,4.6-5.9,7.6-10.6,9.2c0,0.1,0,0.3-0.2,0.4L25.4,43.1z M26.6,31.6
			c1.4,0.4,3.1,1,4.1,1.6L30,34.5c-1.1-0.6-2.7-1.2-4.1-1.6L26.6,31.6z"/>
		<path class="st7" d="M42.9,33.6c0,0.2-0.2,0.3-0.4,0.3c-0.1,4.4-0.5,8.2-2.8,11.1c-0.3-0.3-0.9-0.6-1.4-0.8
			c2.2-2.5,2.5-6.6,2.5-10.7L42.9,33.6z M47,42.2c2.4-1.2,3.9-3.4,4.7-6.1c0.3,0.3,1,0.7,1.4,0.9c-1.1,3.2-3,5.6-6.4,7.2
			c-0.1,0.1-0.2,0.3-0.3,0.4l-1.2-1.4l0.2-0.3V31.5l2,0.1c0,0.2-0.1,0.3-0.4,0.3V42.2z"/>
		<path class="st7" d="M65.8,34.2c0,0.1-0.2,0.2-0.3,0.3c-1.7,5.1-4.3,8.4-8.6,10.5c-0.3-0.4-0.7-0.9-1.2-1.2
			c4.1-1.9,6.5-4.9,7.7-8.8h-5.1c-0.9,1.3-2.1,2.7-3.5,3.8c-0.3-0.3-0.9-0.8-1.3-1c2.1-1.6,4-4.1,5-6.8l2,0.5c0,0.2-0.3,0.2-0.5,0.2
			c-0.3,0.6-0.6,1.2-0.9,1.8h5l0.2-0.1L65.8,34.2z"/>
		<path class="st7" d="M68.7,32.5c1.4-0.5,2.9-1.3,3.9-1.9l1.5,1.3C73.9,32,73.8,32,73.6,32c-1.1,0.6-2.7,1.2-4.2,1.7v2.7h4.2v1.5
			h-4.2v3.5h4.4v1.5h-4.4v1.3h-1.5V32.2L68.7,32.5z M81,32.1v9.3c0,1.6-0.7,1.8-3.2,1.8c-0.1-0.4-0.3-1.2-0.6-1.6c0.5,0,1,0,1.4,0
			c0.8,0,0.9,0,0.9-0.3v-7.7h-3.6v11.8h-1.5V32.1H81z"/>
		<path class="st7" d="M91,35.7h-6.1v0.9c0,2.4-0.1,5.9-1.1,8.2c-0.3-0.2-0.9-0.6-1.2-0.7c0.9-2.2,1-5.3,1-7.5v-5.4H91V35.7z
			 M89.5,32.6h-4.6v1.8h4.6V32.6z M91.3,37.6v4.9c0,1.1-0.4,1.3-1.9,1.3c0-0.3-0.2-0.9-0.4-1.2c0.4,0,0.7,0,0.9,0s0.2,0,0.2-0.2
			v-3.6h-1.2v6.6h-1.3v-6.6h-1.2v4.9h-1.2v-6.2h2.3V36l1.6,0.1c0,0.1-0.1,0.2-0.3,0.2v1.3H91.3z M93.9,32.7c0,0.1-0.1,0.2-0.3,0.3
			v8.6h-1.4v-8.9L93.9,32.7z M95.4,30.9l1.8,0.1c0,0.1-0.1,0.2-0.4,0.3v12.4c0,1.6-0.7,1.8-3.4,1.8C93.4,45,93.2,44.4,93,44
			c0.5,0,0.9,0,1.3,0h0.8c0.3,0,0.4-0.1,0.4-0.3V30.9z"/>
	</g>
	<g>
		<path class="st7" d="M43.8,50.7v1.5h-1.9v10.2c0,1.8-0.8,2-4.4,2c-0.1-0.4-0.4-1.2-0.6-1.6c0.7,0,1.5,0.1,2.1,0.1
			c1.3,0,1.3,0,1.3-0.5V52.2H29.5v-1.5H43.8z M37.7,60.4h-5.3v1.3H31v-7.3h6.7V60.4z M36.2,55.8h-3.8V59h3.8V55.8z"/>
		<path class="st7" d="M49.4,50.1c0,0.1-0.2,0.2-0.4,0.2c-0.3,0.9-0.8,1.9-1.3,2.9c0.9,0,1.9-0.1,2.9-0.1c-0.3-0.5-0.6-1.1-1-1.6
			L51,51c0.8,1.1,1.7,2.6,2.1,3.6l-1.3,0.6c-0.1-0.3-0.2-0.6-0.3-0.9c-2.1,0.2-4.3,0.3-5.7,0.4c0,0.1-0.1,0.2-0.3,0.2l-0.5-1.7
			l1.3,0c0.5-1.1,1.1-2.5,1.5-3.6L49.4,50.1z M51.9,55.7v7.2c0,1.3-0.5,1.6-2.8,1.6c-0.1-0.4-0.3-1-0.5-1.4c0.4,0,0.8,0,1.1,0
			c0.6,0,0.7,0,0.7-0.3v-1.3h-3v2.9h-1.4v-8.8H51.9z M50.4,56.9h-3v1.1h3V56.9z M47.4,60.4h3v-1.2h-3V60.4z M57.8,55.4
			c0.6,0,0.7-0.3,0.7-1.8c0.3,0.2,0.9,0.5,1.3,0.6c-0.2,2-0.6,2.6-2,2.6h-2.5c-1.7,0-2.1-0.4-2.1-1.9v-5.1l1.9,0.1
			c0,0.1-0.1,0.2-0.4,0.3v2.1c1.3-0.4,2.5-1,3.4-1.4l1,1.2c-0.1,0-0.1,0-0.3,0c-1,0.5-2.6,1-4.1,1.5v1.3c0,0.5,0.1,0.6,0.8,0.6H57.8
			z M54.8,62.4c0,0.6,0.1,0.6,0.8,0.6h2.3c0.6,0,0.7-0.3,0.8-2c0.3,0.2,0.9,0.5,1.3,0.6c-0.2,2.2-0.6,2.8-2,2.8h-2.6
			c-1.7,0-2.1-0.4-2.1-1.9v-5.3l1.9,0.1c0,0.1-0.1,0.2-0.4,0.3v2c1.3-0.5,2.7-1,3.5-1.6l1.1,1.2c-0.1,0.1-0.2,0.1-0.3,0.1
			c-1,0.6-2.7,1.2-4.3,1.6V62.4z"/>
		<path class="st7" d="M62.5,55v-0.9c-0.3,0.4-0.7,0.7-1.1,1.1c-0.1-0.3-0.5-1-0.8-1.2c1.5-1.3,2.6-3,3.1-4.4l1.7,0.3
			c0,0.1-0.1,0.2-0.4,0.2l0,0c1.1,0.9,2.3,2.1,2.9,2.9l-0.9,1.2c-0.5-0.8-1.6-2-2.6-2.9c-0.4,0.8-1,1.6-1.6,2.4h3.7V55H62.5z
			 M67.1,56.4V61c0,1.3-0.5,1.5-2.3,1.5c0-0.4-0.2-0.9-0.4-1.3c1.4,0,1.4,0,1.4-0.2v-3.3h-1.7v6.7h-1.3v-6.7h-1.5v-1.3H67.1z
			 M71,62.3c-0.1,0.1-0.2,0.1-0.3,0.1c-0.7,0.7-2.2,1.6-3.4,2.1c-0.2-0.3-0.7-0.7-1-1c1.3-0.5,2.7-1.3,3.4-2L71,62.3z M68.1,52.9
			h2.3c0.1-0.4,0.2-0.9,0.3-1.3h-3.2v-1.3h8.2v1.3h-3.5c-0.1,0.4-0.2,0.9-0.4,1.3h3.2v8.4h-7V52.9z M73.7,55.4v-1.3h-4.2v1.3H73.7z
			 M73.7,57.8v-1.3h-4.2v1.3H73.7z M73.7,60.2v-1.3h-4.2v1.3H73.7z M74.8,64.5C74.2,63.9,73,63,72,62.4l1.1-0.8
			c0.9,0.6,2.2,1.4,2.8,2L74.8,64.5z"/>
		<path class="st7" d="M81.5,59.1l0.3,1.3c-1.5,0.6-3.2,1.3-4.2,1.7c0,0.1-0.1,0.3-0.2,0.3l-0.7-1.7c0.6-0.2,1.2-0.4,2-0.6v-5.2
			h-1.6v-1.4h1.6v-3.8l1.7,0.1c0,0.1-0.1,0.2-0.3,0.2v3.5h1.5v1.4H80v4.7L81.5,59.1z M80.9,61.9c1.3-0.3,3.4-1,5.3-1.6l0.2,1.3
			c-1.7,0.6-3.4,1.3-4.5,1.6c0,0.1-0.1,0.2-0.2,0.3L80.9,61.9z M88.3,53.3c0.1,1.8,0.2,3.6,0.4,5.1c0.5-1.1,0.9-2.4,1.2-3.7l1.7,0.4
			c0,0.1-0.2,0.2-0.4,0.2c-0.5,2-1.2,3.8-2.1,5.3c0.3,1.5,0.7,2.5,1.2,2.5c0.3,0,0.5-0.7,0.5-2.2c0.3,0.3,0.7,0.7,1,0.9
			c-0.3,2.1-0.6,2.7-1.7,2.7c-0.4,0-1.3-0.1-2.1-2.4c-0.7,0.9-1.5,1.7-2.5,2.4c-0.2-0.3-0.7-0.7-1-0.9c1.2-0.8,2.2-1.9,3.1-3.2
			c-0.4-2-0.6-4.5-0.7-7.1h-5.4v-1.4h5.3c0-0.7,0-1.5,0-2.2l1.8,0.1c0,0.1-0.1,0.2-0.4,0.3v1.9h2.3c-0.4-0.5-1.2-1.1-1.9-1.5
			l0.8-0.8c0.7,0.4,1.5,1.1,2,1.5l-0.8,0.8h0.9v1.4H88.3z M81.9,54.7h4.1v4.8h-4.1V54.7z M84.8,58.4v-2.5h-1.7v2.5H84.8z"/>
	</g>
</g>
<g>
	<path d="M22.1,142.1h4.4v0.8h-9.7v-0.8h4.3v-0.6h-3.1v-0.8h3.1v-0.6h-3.7v-0.8h3.7v-0.8l1.3,0.1c0,0.1-0.1,0.2-0.3,0.2v0.6h3.7v0.8
		h-3.7v0.6h3.2v0.8h-3.2V142.1z M24.9,143.4v4.2c0,1-0.5,1-2.4,1c-0.1-0.2-0.2-0.6-0.3-0.8c0.3,0,0.7,0,1,0c0.6,0,0.7,0,0.7-0.2
		v-0.7h-4.4v1.7h-1v-5.2H24.9z M23.8,144.2h-4.4v0.6h4.4V144.2z M19.4,146.2h4.4v-0.7h-4.4V146.2z"/>
	<path d="M29.7,146.7c0,0.7,0.2,0.8,1.4,0.8h4c1,0,1.2-0.3,1.3-1.5c0.3,0.2,0.7,0.3,1,0.4c-0.2,1.6-0.6,2.1-2.3,2.1h-4
		c-1.9,0-2.5-0.3-2.5-1.8v-4.5c-0.2,0.2-0.4,0.4-0.7,0.5c-0.2-0.2-0.5-0.6-0.7-0.7c1.5-1,2.6-2.4,3.2-3.5l1.3,0.2
		c0,0.1-0.1,0.2-0.3,0.2l-0.2,0.4h2.5l0.2-0.1l0.8,0.5c0,0.1-0.1,0.1-0.2,0.1c-0.2,0.4-0.6,1-0.9,1.4h3v4.1h-1.1v-0.5h-5.8V146.7z
		 M32.3,141.2c0.3-0.3,0.5-0.7,0.7-1.1h-2.5c-0.3,0.4-0.6,0.7-0.9,1.1H32.3z M29.7,142.1v1.8H32v-1.8H29.7z M35.5,143.9v-1.8H33v1.8
		H35.5z"/>
	<path d="M43.8,140.8c0,0.1-0.1,0.2-0.3,0.2c-0.4,3.5-1.5,6-3.3,6c-1,0-1.9-1-1.9-2.7c0-2.7,2.1-4.8,4.9-4.8c3.1,0,4.5,1.9,4.5,4.1
		c0,2.6-1.4,3.8-4,4.5c-0.2-0.2-0.4-0.6-0.7-0.9c2.5-0.5,3.6-1.7,3.6-3.5c0-1.8-1.2-3.1-3.4-3.1c-0.2,0-0.3,0-0.4,0L43.8,140.8z
		 M42.5,140.6c-1.9,0.3-3.1,1.9-3.1,3.6c0,1,0.4,1.7,0.9,1.7C41.4,145.9,42.2,143.3,42.5,140.6z"/>
	<path d="M52,142.5c0.2-0.5,0.5-1.4,0.6-1.9l1.1,0.3c0,0.1-0.1,0.1-0.3,0.1c-0.1,0.5-0.4,1.1-0.6,1.6h1.5v0.9h-5.7v-0.9h3.6
		L52,142.5z M54.2,139.6v0.9H49v-0.9h2.1v-1.2l1.2,0.1c0,0.1-0.1,0.2-0.2,0.2v0.9H54.2z M49.4,148.6v-4.2h4.4v4.1h-1V148h-2.4v0.6
		H49.4z M50.5,140.7c0.2,0.5,0.4,1.2,0.5,1.6l-0.9,0.2c0-0.4-0.2-1.1-0.4-1.6L50.5,140.7z M52.8,145.3h-2.4v1.8h2.4V145.3z
		 M58.2,139.1l0.7,0.3c0,0.1-0.1,0.1-0.1,0.1c-0.4,0.9-0.9,2.1-1.4,3.2c1.1,1.1,1.5,1.9,1.5,2.6c0,1.9-1.3,1.9-1.9,1.9
		c-0.2,0-0.3,0-0.5,0c0-0.3-0.1-0.7-0.3-1c0.4,0,0.7,0,0.9,0c0.7,0,0.8-0.4,0.8-0.9c0-0.6-0.4-1.3-1.5-2.4c0.4-1,0.8-2,1.1-2.8h-1.6
		v8.5h-1v-9.5h3.2L58.2,139.1z"/>
	<path d="M66.4,138.6c0.7,1.4,2.1,3,3.3,3.9c-0.3,0.2-0.7,0.6-0.9,0.9c-0.3-0.3-0.6-0.6-0.9-0.9c0,0.1,0,0.2,0,0.3
		c-0.1,3.4-0.3,4.7-0.7,5.1c-0.2,0.3-0.5,0.4-0.9,0.5c-0.2,0-0.4,0-0.7,0c-0.3,0-0.7,0-1,0c0-0.3-0.2-0.7-0.3-1
		c0.7,0.1,1.3,0.1,1.6,0.1c0.2,0,0.3,0,0.5-0.2c0.3-0.3,0.4-1.3,0.5-3.9h-2.6c-0.3,2-0.9,4-3.8,5.1c-0.1-0.3-0.4-0.7-0.7-0.9
		c2.5-0.8,3.1-2.4,3.3-4.2h-2.1v-0.9c-0.3,0.3-0.7,0.6-1,0.9c-0.2-0.2-0.6-0.6-0.8-0.8c1.3-0.9,2.5-2.5,3.2-4.1l1.3,0.4
		c0,0.1-0.2,0.1-0.3,0.1c-0.5,1.2-1.3,2.4-2.2,3.3h5.9l0.2,0l0.6,0.1c-0.9-1-1.9-2.3-2.5-3.5L66.4,138.6z"/>
	<path d="M72.8,139.3c0,0.1-0.1,0.2-0.3,0.2c-0.4,1.8-0.6,3.8-0.6,4.8c0,0.7,0,1.4,0.1,1.8c0.2-0.4,0.6-1.4,0.8-1.8l0.5,0.7
		c-0.4,0.9-0.8,1.5-0.9,2c-0.1,0.2-0.1,0.3-0.1,0.5c0,0.1,0,0.2,0.1,0.4l-1.1,0.2c-0.4-1-0.5-2.3-0.5-3.8c0-1.4,0.2-3.4,0.5-5.2
		L72.8,139.3z M79.4,147.3c-0.4,0-0.8,0-1.2,0c-0.7,0-1.4,0-1.9-0.1c-1.4-0.2-2-1-2-1.9c0-0.8,0.4-1.4,1-2.1l1,0.4
		c-0.5,0.5-0.9,1-0.9,1.6c0,1,1.3,1.1,2.6,1.1c0.5,0,1,0,1.5-0.1L79.4,147.3z M74.5,140.5c1.3,0,3.3-0.2,4.6-0.4l0.1,1.1
		c-1.3,0.2-3.4,0.4-4.7,0.4L74.5,140.5z"/>
	<path d="M86.3,144.6c-0.6,0.1-1.6,0.1-2.4,0.1c-0.1,0.6-0.1,0.6-0.1,0.8c0,1.4,0.8,1.7,1.9,1.7c0.5,0,0.9-0.1,1.4-0.2
		c0.6-0.2,0.9-0.6,0.9-1.2c0-0.5-0.3-1.2-0.8-1.9c0.3-0.1,0.7-0.2,1-0.4c0.6,0.9,1,1.7,1,2.4c0,2.2-2.8,2.2-3.4,2.2
		c-1.6,0-3-0.4-3-2.7c0-0.2,0-0.5,0-0.8c-0.8,0-2.3-0.1-2.3-1.3c0-0.5,0.3-1,0.9-1.4l0.8,0.4c-0.4,0.3-0.7,0.6-0.7,0.9
		c0,0.5,0.7,0.5,1.4,0.5c0.1-0.7,0.1-1.4,0.2-2.2c-0.7-0.1-1.6-0.3-2.2-0.5l0.2-1c0.6,0.3,1.3,0.5,2,0.5c0.1-0.6,0.2-1.3,0.2-1.8
		l1.5,0.2c0,0.1-0.2,0.2-0.4,0.2c-0.1,0.4-0.2,1-0.2,1.5c0.3,0,0.6,0,1,0c0.4,0,0.8,0,1.1,0l0,1c-0.3,0-0.7,0-1.1,0
		c-0.4,0-0.8,0-1.1,0c-0.1,0.7-0.2,1.5-0.2,2.1c0.8,0,1.6-0.1,2.3-0.2L86.3,144.6z"/>
	<path d="M91.2,139.8c1-0.4,2-0.9,2.6-1.3l1,0.9c-0.1,0.1-0.2,0.1-0.3,0.1c-0.7,0.4-1.8,0.8-2.9,1.2v1.8h2.9v1h-2.9v2.4h3v1h-3v0.9
		h-1v-8.1L91.2,139.8z M99.5,139.5v6.3c0,1.1-0.5,1.2-2.2,1.2c-0.1-0.3-0.2-0.8-0.4-1.1c0.4,0,0.7,0,1,0c0.5,0,0.6,0,0.6-0.2v-5.3
		h-2.4v8h-1v-9.1H99.5z"/>
	<path d="M106.4,141.9h-4.1v0.6c0,1.6-0.1,4-0.8,5.6c-0.2-0.1-0.6-0.4-0.8-0.5c0.6-1.5,0.7-3.6,0.7-5.1v-3.7h5V141.9z M105.4,139.8
		h-3.1v1.2h3.1V139.8z M106.5,143.2v3.3c0,0.7-0.2,0.9-1.3,0.9c0-0.2-0.1-0.6-0.3-0.8c0.3,0,0.5,0,0.6,0c0.1,0,0.1,0,0.1-0.1v-2.5
		h-0.8v4.5H104v-4.5h-0.8v3.4h-0.8v-4.2h1.6v-1.1l1.1,0.1c0,0.1-0.1,0.1-0.2,0.2v0.9H106.5z M108.3,139.9c0,0.1-0.1,0.1-0.2,0.2v5.8
		h-1v-6.1L108.3,139.9z M109.4,138.7l1.2,0.1c0,0.1-0.1,0.2-0.2,0.2v8.4c0,1.1-0.5,1.2-2.3,1.2c0-0.3-0.2-0.7-0.3-1
		c0.3,0,0.6,0,0.9,0h0.5c0.2,0,0.3-0.1,0.3-0.2V138.7z"/>
	<path d="M121.4,139.2v1h-1.3v6.9c0,1.2-0.5,1.4-3,1.4c-0.1-0.3-0.3-0.8-0.4-1.1c0.5,0,1,0,1.4,0c0.9,0,0.9,0,0.9-0.3v-6.9h-7.4v-1
		H121.4z M117.2,145.8h-3.6v0.9h-1v-5h4.6V145.8z M116.2,142.7h-2.6v2.2h2.6V142.7z"/>
	<path d="M125.2,138.8c0,0.1-0.1,0.1-0.3,0.1c-0.2,0.6-0.5,1.3-0.9,2c0.6,0,1.3,0,2-0.1c-0.2-0.4-0.4-0.7-0.7-1.1l0.9-0.4
		c0.6,0.8,1.2,1.8,1.4,2.5l-0.9,0.4c-0.1-0.2-0.1-0.4-0.2-0.6c-1.4,0.1-2.9,0.2-3.9,0.2c0,0.1-0.1,0.1-0.2,0.2l-0.3-1.1l0.9,0
		c0.4-0.7,0.8-1.7,1-2.4L125.2,138.8z M126.9,142.6v4.9c0,0.9-0.4,1.1-1.9,1.1c0-0.3-0.2-0.7-0.3-0.9c0.3,0,0.5,0,0.7,0
		c0.4,0,0.5,0,0.5-0.2v-0.9h-2v2h-0.9v-6H126.9z M125.9,143.4h-2v0.8h2V143.4z M123.9,145.8h2V145h-2V145.8z M130.9,142.4
		c0.4,0,0.5-0.2,0.5-1.2c0.2,0.2,0.6,0.3,0.9,0.4c-0.1,1.4-0.4,1.7-1.3,1.7h-1.7c-1.2,0-1.4-0.3-1.4-1.3v-3.5l1.3,0.1
		c0,0.1-0.1,0.2-0.2,0.2v1.5c0.9-0.3,1.7-0.7,2.3-1l0.7,0.8c0,0-0.1,0-0.2,0c-0.7,0.3-1.8,0.7-2.8,1v0.9c0,0.4,0.1,0.4,0.5,0.4
		H130.9z M128.8,147.1c0,0.4,0.1,0.4,0.6,0.4h1.6c0.4,0,0.5-0.2,0.5-1.4c0.2,0.2,0.6,0.3,0.9,0.4c-0.1,1.5-0.4,1.9-1.4,1.9h-1.8
		c-1.2,0-1.5-0.3-1.5-1.3v-3.6l1.3,0.1c0,0.1-0.1,0.2-0.3,0.2v1.4c0.9-0.3,1.8-0.7,2.4-1.1l0.7,0.8c-0.1,0-0.1,0-0.2,0
		c-0.7,0.4-1.9,0.8-2.9,1.1V147.1z"/>
	<path d="M133,139.9c0.3,0,0.8,0,1.1,0c1.1-0.1,6.1-0.4,7.8-0.5l0,1.1c-0.9,0-1.5,0-2.3,0.6c-1.4,0.9-2.9,2.5-2.9,3.8
		c0,1.4,1.1,2.2,3.6,2.5l-0.5,1.1c-3.1-0.4-4.2-1.6-4.2-3.5c0-1.4,1.3-3.2,3.1-4.4c-1.3,0.1-4.1,0.3-5.3,0.4c0,0.1-0.2,0.2-0.3,0.2
		L133,139.9z M140.1,142.2c0.5,0.4,1.1,1,1.4,1.5l-0.5,0.4c-0.3-0.4-0.9-1.1-1.3-1.5L140.1,142.2z M141.3,141.3
		c0.5,0.4,1.1,1,1.4,1.5l-0.5,0.4c-0.3-0.4-0.9-1.1-1.3-1.5L141.3,141.3z"/>
	<path d="M143.3,140.3c0.7,0,4-0.1,4.7-0.1c0-0.2,0-1.3-0.1-1.6l1.5,0.1c0,0.1-0.1,0.2-0.3,0.2c0,0.3,0,0.8,0,1.3
		c1.4,0,2.8-0.1,3.5-0.1v1c-0.8,0-2.1,0-3.4,0c0,0.4,0,0.8,0,1.1c0,0.4,0,0.7,0,1c0.1,0.4,0.2,0.9,0.2,1.2c0,2.2-1.5,3.5-3.2,4.2
		c-0.2-0.2-0.5-0.6-0.8-0.8c1.4-0.5,2.3-1.2,2.6-2h0c-0.2,0.2-0.5,0.4-0.8,0.4c-1,0-1.9-0.8-1.9-1.9c0-1.2,1-2,2-2
		c0.3,0,0.6,0.1,0.9,0.2c0,0,0-0.1,0-0.1c0-0.2,0-0.6,0-1c-1.8,0.1-3.5,0.1-4.7,0.2L143.3,140.3z M148.3,144.1
		c0-0.8-0.3-1.2-0.9-1.2s-1.1,0.5-1.1,1.2c0,0.6,0.5,1.1,1,1.1C147.9,145.2,148.3,144.6,148.3,144.1z"/>
	<path d="M157.7,139c0,0.2-0.2,0.2-0.4,0.2c-0.1,0.6-0.3,1.5-0.4,2.2c0.4,0,0.8-0.1,1-0.1c1.7,0,2.3,1.2,2.3,2.8
		c0,0.4-0.1,1.5-0.3,2.3c-0.3,1.2-1,1.8-2,1.8c-0.4,0-1-0.2-1.9-0.9c0.2-0.3,0.3-0.6,0.4-0.9c0.8,0.6,1.2,0.7,1.6,0.7
		c0.5,0,0.8-0.4,1-1c0.2-0.6,0.3-1.5,0.3-2c0-1.1-0.4-1.8-1.3-1.8c-0.3,0-0.7,0-1.2,0.1c-0.5,2.1-1.1,4-2.1,5.7l-1-0.5
		c1-1.6,1.5-3.2,2-5.1l-1.8,0.2l-0.1-1.1l2.1-0.2c0.2-0.8,0.3-1.7,0.4-2.7L157.7,139z M160.8,140.5c-0.3-0.5-0.9-1.2-1.3-1.5
		l0.5-0.4c0.5,0.4,1.1,1,1.4,1.5L160.8,140.5z M162.2,144.9c-0.3-1.5-1.1-2.8-2-3.6l0.9-0.6c1,0.9,1.9,2.3,2.2,3.8L162.2,144.9z
		 M162.5,140.1c-0.3-0.5-0.9-1.2-1.3-1.5l0.5-0.4c0.5,0.4,1.1,1,1.4,1.5L162.5,140.1z"/>
	<path d="M164.7,145.4c0.8,0.6,1.8,1.7,2.4,2.3l-0.9,0.8c-0.5-0.7-1.6-1.8-2.3-2.4L164.7,145.4z"/>
	<path d="M17.9,152.7c1-0.4,2-0.9,2.6-1.3l1,0.9c-0.1,0.1-0.2,0.1-0.3,0.1c-0.7,0.4-1.8,0.8-2.9,1.2v1.8h2.9v1h-2.9v2.4h3v1h-3v0.9
		h-1v-8.1L17.9,152.7z M26.2,152.4v6.3c0,1.1-0.5,1.2-2.2,1.2c-0.1-0.3-0.2-0.8-0.4-1.1c0.4,0,0.7,0,1,0c0.5,0,0.6,0,0.6-0.2v-5.3
		h-2.4v8h-1v-9.1H26.2z"/>
	<path d="M33,154.9h-4.1v0.6c0,1.6-0.1,4-0.8,5.6c-0.2-0.1-0.6-0.4-0.8-0.5c0.6-1.5,0.7-3.6,0.7-5.1v-3.7h5V154.9z M32,152.8h-3.1
		v1.2H32V152.8z M33.2,156.2v3.3c0,0.7-0.2,0.9-1.3,0.9c0-0.2-0.1-0.6-0.3-0.8c0.3,0,0.5,0,0.6,0c0.1,0,0.1,0,0.1-0.1V157h-0.8v4.5
		h-0.9V157h-0.8v3.4h-0.8v-4.2h1.6V155l1.1,0.1c0,0.1-0.1,0.1-0.2,0.2v0.9H33.2z M35,152.8c0,0.1-0.1,0.1-0.2,0.2v5.8h-1v-6.1
		L35,152.8z M36.1,151.6l1.2,0.1c0,0.1-0.1,0.2-0.2,0.2v8.4c0,1.1-0.5,1.2-2.3,1.2c0-0.3-0.2-0.7-0.3-1c0.3,0,0.6,0,0.9,0h0.5
		c0.2,0,0.3-0.1,0.3-0.2V151.6z"/>
	<path d="M47.6,153.2v7c0,1.2-0.6,1.2-2.6,1.2c0-0.3-0.2-0.8-0.3-1c0.4,0,0.9,0,1.2,0h0.5c0.2,0,0.3-0.1,0.3-0.3v-6h-3
		c0,0.4-0.1,0.8-0.2,1.2c1,0.9,2.3,2.1,2.9,2.9l-0.9,0.7c-0.5-0.7-1.5-1.7-2.4-2.6c-0.4,1-1.2,2-2.6,2.8c-0.2-0.2-0.5-0.6-0.7-0.8
		c2.3-1.2,2.6-2.9,2.7-4.3h-2.8v7.3h-1v-8.3h3.8v-1.8l1.3,0.1c0,0.1-0.1,0.2-0.3,0.2v1.6H47.6z"/>
	<path d="M50.9,158.5c-0.5,0.3-0.9,0.5-1.4,0.8c-0.1-0.2-0.4-0.6-0.6-0.8c1.8-0.8,3.6-2.2,4.5-3.4l1.4,0.1c0,0.1-0.1,0.2-0.2,0.2
		c1,1.2,2.9,2.4,4.5,3c-0.2,0.3-0.5,0.6-0.6,0.9c-0.5-0.2-0.9-0.5-1.4-0.7v3h-1v-0.3h-4.1v0.3h-1V158.5z M50.4,153.4v1.2h-1v-2.2h4
		v-1.1l1.3,0.1c0,0.1-0.1,0.2-0.2,0.2v0.8h4.1v2.2h-1v-1.2H50.4z M53.2,154.2c0,0.1-0.1,0.1-0.3,0.1c-0.7,0.8-1.7,1.7-2.7,2.2
		c-0.1-0.2-0.5-0.6-0.7-0.8c0.9-0.4,1.9-1.2,2.5-2L53.2,154.2z M51.9,160.2H56v-1.5h-4.1V160.2z M56,157.8c-0.8-0.6-1.5-1.2-2-1.8
		c-0.5,0.6-1.1,1.2-1.9,1.8H56z M57.5,156.5c-0.6-0.6-1.8-1.5-2.8-2.1l0.7-0.6c1,0.6,2.2,1.4,2.8,2L57.5,156.5z"/>
	<path d="M62.2,152.2c0,0.1-0.1,0.2-0.3,0.2c-0.4,1.8-0.6,3.8-0.6,4.8c0,0.7,0,1.4,0.1,1.8c0.2-0.4,0.6-1.4,0.8-1.8l0.5,0.7
		c-0.4,0.9-0.8,1.5-0.9,2c-0.1,0.2-0.1,0.3-0.1,0.5c0,0.1,0,0.2,0.1,0.4l-1.1,0.2c-0.4-1-0.5-2.3-0.5-3.8c0-1.4,0.2-3.4,0.5-5.2
		L62.2,152.2z M68.9,160.2c-0.4,0-0.8,0-1.2,0c-0.7,0-1.4,0-1.9-0.1c-1.4-0.2-2-1-2-1.9c0-0.8,0.4-1.4,1-2.1l1,0.4
		c-0.5,0.5-0.9,1-0.9,1.6c0,1,1.3,1.1,2.6,1.1c0.5,0,1,0,1.5-0.1L68.9,160.2z M63.9,153.4c1.3,0,3.3-0.2,4.6-0.4l0.1,1.1
		c-1.3,0.2-3.4,0.4-4.7,0.4L63.9,153.4z"/>
	<path d="M77.5,160.6c-0.8-0.7-1.9-1.4-2.9-1.8c0,0.5-0.1,1.1-0.3,1.3c-0.1,0.6-0.7,1-1.9,1c-1.4,0-2.6-0.7-2.6-1.9
		c0-1.2,1.2-1.9,2.6-1.9c0.3,0,0.8,0,1.1,0.1c0-0.2,0-0.4-0.1-0.6c-0.1-1.4-0.2-3.8-0.2-5.2l1.4,0.1c0,0.1-0.1,0.2-0.3,0.2l0,1.9
		c0.7,0,2.2-0.1,3.4-0.4l0.1,1.1c-1.1,0.2-2.6,0.3-3.5,0.3c0,0.8,0.1,1.5,0.1,2.1c0,0.2,0.1,0.5,0.1,0.7c1.3,0.4,2.6,1.1,3.7,1.9
		L77.5,160.6z M72.4,158.3c-0.9,0-1.6,0.4-1.6,0.9c0,0.6,0.8,1,1.6,1c0.7,0,1.2-0.3,1.2-0.9c0-0.3,0-0.6,0-0.9
		C73.2,158.4,72.7,158.3,72.4,158.3z"/>
	<path d="M79,155.6c0.2,0,0.6-0.1,1-0.3c1.5-0.4,3-0.7,3.9-0.7c1.5,0,2.8,0.8,2.8,2.6c0,2.4-2.3,3.3-5.3,3.5
		c-0.1-0.2-0.2-0.7-0.3-0.9c2.6-0.2,4.5-0.9,4.5-2.5c0-1.2-0.9-1.7-1.9-1.7c-0.8,0-2,0.2-3.5,0.8c-0.2,0.1-0.5,0.2-0.7,0.2
		c0,0.1-0.1,0.2-0.2,0.2L79,155.6z"/>
	<path d="M87.7,152.8c0.3,0,0.8,0,1.1,0c1.1-0.1,6.1-0.4,7.8-0.5l0,1.1c-0.9,0-1.5,0-2.3,0.6c-1.4,0.9-2.9,2.5-2.9,3.8
		c0,1.4,1.1,2.2,3.6,2.5l-0.5,1.1c-3.1-0.4-4.2-1.6-4.2-3.5c0-1.4,1.3-3.2,3.1-4.4c-1.2,0.1-4.1,0.3-5.3,0.4c0,0.1-0.2,0.2-0.3,0.2
		L87.7,152.8z"/>
	<path d="M98.2,160.9c-0.3-0.8-0.5-2.5-0.5-4c0-1.5,0.2-3.2,0.6-4.9l1.4,0.3c0,0.1-0.2,0.2-0.3,0.2c-0.6,2.4-0.6,4.2-0.6,5
		c0,0.6,0,1.1,0.1,1.4c0.2-0.5,0.6-1.5,0.8-1.9l0.6,0.7c-0.1,0.2-1.1,2.2-1.1,2.7c0,0.2,0,0.3,0.1,0.5L98.2,160.9z M101,154.4
		c0.5,0,2,0,2.5,0c0-0.9-0.1-1.6-0.1-2.4l1.4,0.1c0,0.1-0.1,0.2-0.3,0.2c0,0.6,0,1.1,0,2.1c0.8-0.1,1.4-0.2,2-0.4l0.1,1.1
		c-0.5,0.2-1.2,0.3-2.1,0.3c0,1.1,0.1,2.2,0.1,2.9c0.8,0.3,1.6,0.8,2.1,1.3l-0.6,1c-0.4-0.4-0.9-0.8-1.5-1.1
		c-0.1,1.1-0.5,1.8-1.9,1.8c-1.3,0-2.1-0.7-2.1-1.6c0-1.1,1.1-1.7,2.1-1.7c0.3,0,0.5,0,0.8,0.1c0-0.6-0.1-1.6-0.1-2.5
		c-0.3,0-0.7,0-1,0H101L101,154.4z M103.8,158.8c-0.3-0.1-0.6-0.2-0.9-0.2c-0.6,0-1.2,0.2-1.2,0.8c0,0.5,0.5,0.7,1.2,0.7
		c0.7,0,0.9-0.3,0.9-1L103.8,158.8z"/>
	<path d="M115.5,160.4c-0.9,0.2-2.1,0.2-3.2,0.2c-0.9,0-1.7,0-2.2-0.1c-1.3-0.3-1.9-1.2-1.9-2.1c0-0.8,0.4-1.7,1-2.3l0.9,0.4
		c-0.5,0.6-0.9,1.2-0.9,1.7c0,0.6,0.4,1.1,1.2,1.3c0.4,0.1,1,0.1,1.6,0.1c1.1,0,2.3-0.1,3.3-0.3L115.5,160.4z M110.4,154.9
		c0.5-0.4,1.1-0.8,1.6-1.1v0c-0.7,0.1-2.4,0.1-3.4,0.1c0-0.3,0-0.8,0-1c1,0,3.2,0,4.2-0.1c0.6,0,1.4-0.1,2-0.2l0.1,1.1
		c-1.3,0.2-2.9,1.2-3.6,1.8L110.4,154.9z M115.3,156.6c-0.3-0.4-0.9-1.1-1.4-1.4l0.5-0.4c0.5,0.4,1.1,1,1.4,1.4L115.3,156.6z
		 M116.5,155.5c-0.3-0.4-0.9-1.1-1.4-1.4l0.5-0.4c0.5,0.4,1.1,1,1.4,1.4L116.5,155.5z"/>
	<path d="M121.2,157l-1.2,0.4v2.9c0,1-0.3,1.2-1.9,1.2c0-0.3-0.2-0.7-0.3-1c0.5,0,0.9,0,1.1,0c0.1,0,0.2-0.1,0.2-0.2v-2.6
		c-0.4,0.2-0.8,0.3-1.2,0.4c0,0.1-0.1,0.2-0.2,0.2l-0.3-1.1c0.5-0.1,1-0.3,1.6-0.5v-2.2h-1.5v-0.9h1.5v-2.1l1.2,0.1
		c0,0.1-0.1,0.2-0.2,0.2v1.9h1.2v0.9H120v1.9l1.1-0.3L121.2,157z M124.8,159v1.3c0.3,0,0.7,0.1,1,0.1c0.3,0,1.5,0,1.9,0
		c-0.1,0.2-0.3,0.6-0.3,0.9h-1.7c-1.5,0-2.6-0.3-3.4-1.5c-0.3,0.7-0.6,1.3-1.1,1.8c-0.2-0.2-0.5-0.4-0.8-0.5
		c0.8-0.7,1.2-2.1,1.4-3.5l1.1,0.2c0,0.1-0.1,0.1-0.2,0.1c0,0.3-0.1,0.6-0.2,0.9c0.3,0.7,0.7,1.1,1.1,1.3v-2.9h-2.4v-0.9h6.2v0.9
		h-2.8v1.1h2.3v0.8H124.8z M126.9,151.8v3.7h-5.1v-3.7H126.9z M126,153.3v-0.8h-3.2v0.8H126z M126,154.8V154h-3.2v0.8H126z"/>
	<path d="M138.2,158.9h-3.6c1,0.7,2.5,1.3,3.9,1.6c-0.2,0.2-0.5,0.6-0.7,0.9c-1.4-0.4-3-1.2-4-2.1v2.2h-1v-2.2c-1,0.9-2.5,1.7-4,2
		c-0.1-0.2-0.4-0.6-0.6-0.8c1.4-0.3,2.9-0.9,3.8-1.6h-3.6v-0.9h4.4v-0.8l1.3,0.1c0,0.1-0.1,0.2-0.3,0.2v0.6h4.4V158.9z M131,156.3
		l-1-0.3c0.3-0.3,0.6-0.7,0.9-1.1h-2.5V154h3.1c0.2-0.3,0.5-0.7,0.7-0.9l1.1,0.3c0,0.1-0.1,0.1-0.3,0.1c-0.1,0.2-0.2,0.3-0.4,0.5
		h5.3v0.8H136c-0.3,0.5-0.6,1-1.1,1.3c1,0.3,1.9,0.6,2.6,0.8l-0.6,0.7c-0.7-0.3-1.8-0.6-3-1c-1,0.5-2.5,0.8-4.8,0.9
		c0-0.2-0.2-0.6-0.3-0.8c1.6-0.1,2.8-0.2,3.7-0.5c-0.5-0.1-0.9-0.2-1.3-0.3L131,156.3z M129.8,153v0.8h-0.9v-1.6h3.9v-0.8l1.3,0.1
		c0,0.1-0.1,0.2-0.2,0.2v0.5h4v1.6h-1V153H129.8z M131.7,155.4c0.7,0.1,1.4,0.3,2.1,0.5c0.5-0.3,0.8-0.6,1-1h-2.7L131.7,155.4z"/>
	<path d="M147.3,156.9l1.3,0.1c0,0.1-0.1,0.2-0.3,0.2v4.3h-1.1v-0.7h-6.5v0.7h-1v-4.6l1.3,0.1c0,0.1-0.1,0.2-0.3,0.2v2.7h2.6v-3.6
		h-3.3v-3.8l1.3,0.1c0,0.1-0.1,0.2-0.3,0.2v2.6h2.2v-3.8l1.3,0.1c0,0.1-0.1,0.2-0.3,0.2v3.5h2.3v-2.9l1.3,0.1c0,0.1-0.1,0.2-0.3,0.2
		v3.6h-3.4v3.6h2.8V156.9z"/>
	<path d="M159.7,157.2h-3.6c1,1.2,2.5,2.4,3.9,3c-0.2,0.2-0.6,0.6-0.8,0.9c-1.4-0.7-2.8-1.9-3.8-3.3v3.6h-1.1v-3.6
		c-1,1.3-2.4,2.5-3.8,3.2c-0.2-0.3-0.5-0.7-0.8-0.9c1.4-0.6,3-1.8,3.9-3H150v-1h2.3c-0.1-0.6-0.5-1.4-0.9-2l0.9-0.3
		c0.4,0.6,0.8,1.4,1,2l-0.9,0.4h2v-2.5h-3.8v-1h3.8v-1.3l1.3,0.1c0,0.1-0.1,0.2-0.3,0.2v1h3.9v1h-3.9v2.5h1.9
		c-0.2-0.1-0.8-0.3-0.8-0.3c0.4-0.6,0.8-1.5,1.1-2.1l1.2,0.4c0,0.1-0.1,0.1-0.3,0.1c-0.3,0.6-0.7,1.4-1.1,1.9h2.3V157.2z"/>
	<path d="M160.8,153c0.7,0,1.6,0,2.4,0c0.4,0,0.9,0,1.2,0c0-0.5,0-1.1,0-1.4l1.4,0.1c0,0.1-0.1,0.2-0.3,0.2c0,0.3,0,0.7,0,1.1
		c1.2-0.1,2.3-0.2,3.4-0.4l0.1,1c-1,0.2-2.2,0.3-3.5,0.4l0,1.7c1-0.1,2.1-0.2,2.9-0.4l0.1,0.9c-0.8,0.2-1.9,0.3-3,0.3
		c0,0.6,0,1.2,0.1,1.6c1,0.3,2,0.9,3,1.6l-0.6,0.9c-0.8-0.7-1.6-1.2-2.3-1.5v0.4c0,1-0.7,1.6-2.1,1.6c-1.4,0-2.4-0.6-2.4-1.7
		c0-1.1,1.2-1.7,2.4-1.7c0.3,0,0.6,0,1,0.1c0-0.4,0-0.8,0-1.3c-0.2,0-0.5,0-0.7,0c-1.9,0-2.6-0.2-2.6-1c0-0.4,0.3-0.8,1.1-1.3
		l0.7,0.4c-0.6,0.3-0.7,0.5-0.7,0.6c0,0.3,0.4,0.3,1.3,0.3c0.3,0,0.6,0,0.9,0c0-0.6,0-1.2-0.1-1.8c-0.4,0-0.9,0-1.3,0
		c-0.7,0-1.7,0-2.4,0V153z M164.7,158.8c-0.4-0.1-0.8-0.2-1.1-0.2c-0.7,0-1.4,0.3-1.4,0.8c0,0.5,0.6,0.8,1.4,0.8c0.7,0,1-0.3,1-1
		V158.8z"/>
	<path d="M177.4,155.7c0,1.5,0,3-1.5,3c-0.5,0-1.1-0.2-1.6-0.4c0.1-0.2,0.1-0.6,0.1-0.9c0.5,0.3,1,0.4,1.3,0.4
		c0.2,0,0.5-0.2,0.5-0.5c0.1-0.4,0.1-1,0.1-1.8c-1.1,0.2-2.3,0.4-3.1,0.5c0,3.3,0,4,1.8,4c0.2,0,0.4,0,0.6,0c0.9,0,2.1-0.1,2.9-0.2
		l0,1c-0.8,0.1-1.9,0.1-2.7,0.1c-1.7,0-3.3-0.1-3.5-2.4c0-0.6-0.1-1.4-0.1-2.4c-0.6,0.1-1.5,0.3-2,0.4l-0.2-1
		c0.5-0.1,1.4-0.2,2.2-0.4c0-0.9,0-2,0-2.7l1.4,0.1c0,0.1-0.1,0.2-0.3,0.2c0,0.6,0,1.4,0,2.2l3.1-0.5c0-0.9-0.1-1.9-0.1-2.8l1.4,0.1
		c0,0.1-0.1,0.2-0.2,0.2c0,0.7,0.1,1.5,0.1,2.3c0.8-0.1,1.6-0.2,2.2-0.3l0.1,1c-0.6,0.1-1.4,0.2-2.3,0.3V155.7z"/>
	<path d="M180,160.7c0.7-2.1,2.1-6,2.5-7.1c0.2-0.6,0.5-1.5,0.6-1.8l1.5,0.4c-0.1,0.2-0.2,0.2-0.4,0.2c-0.5,1.2-1.4,3.6-1.8,4.7h0
		c0.6-0.7,1.5-1.1,2.2-1.1c0.9,0,1.4,0.6,1.4,1.6c0,0.2,0,1.2,0,1.4c0,0.7,0.3,1,0.9,1c0.9,0,1.6-1,2.1-2.8c0.3,0.2,0.7,0.4,1,0.6
		c-0.6,2.1-1.7,3.3-3.2,3.3c-1.2,0-2-0.7-2-1.8c0-0.4,0-0.9,0-1.2v-0.1c0-0.6-0.2-0.9-0.6-0.9c-1.1,0-2.3,1.6-2.5,2.5
		c-0.1,0.4-0.4,1-0.5,1.6L180,160.7z"/>
	<path d="M193.3,160c0,0.8-0.7,1.5-1.5,1.5s-1.5-0.7-1.5-1.5c0-0.8,0.7-1.5,1.5-1.5C192.7,158.5,193.3,159.2,193.3,160z M192.9,160
		c0-0.6-0.5-1.1-1.1-1.1c-0.6,0-1.1,0.5-1.1,1.1c0,0.6,0.5,1.1,1.1,1.1C192.4,161,192.9,160.5,192.9,160z"/>
	<path d="M24.4,173.4c-0.9,0.2-2.1,0.2-3.2,0.2c-0.9,0-1.7,0-2.2-0.1c-1.3-0.3-1.9-1.2-1.9-2.1c0-0.8,0.4-1.7,1-2.3l0.9,0.4
		c-0.5,0.5-0.9,1.2-0.9,1.7c0,0.6,0.4,1.1,1.2,1.3c0.4,0.1,1,0.1,1.6,0.1c1.1,0,2.3-0.1,3.3-0.3L24.4,173.4z M19.3,167.8
		c0.5-0.4,1.1-0.8,1.6-1.1v0c-0.7,0.1-2.4,0.1-3.4,0.1c0-0.3,0-0.8,0-1c1,0,3.2,0,4.2-0.1c0.6,0,1.4-0.1,2-0.2l0.1,1.1
		c-1.3,0.2-2.9,1.2-3.6,1.8L19.3,167.8z M24.2,169.5c-0.3-0.4-0.9-1.1-1.4-1.4l0.5-0.4c0.5,0.4,1.1,1,1.4,1.4L24.2,169.5z
		 M25.4,168.4c-0.3-0.4-0.9-1.1-1.4-1.4l0.5-0.4c0.5,0.4,1.1,1,1.4,1.4L25.4,168.4z"/>
	<path d="M36.3,168.8h-5.9c-0.3,0.4-0.6,0.8-0.9,1.2h1.8v-1l1.2,0.1c0,0.1-0.1,0.2-0.3,0.2v0.8h3.1v2.7c0,1-0.5,1-2.1,1
		c-0.1-0.3-0.2-0.6-0.3-0.9c0.5,0,1.1,0,1.2,0c0.2,0,0.2,0,0.2-0.2v-1.8h-2.1v3.5h-1v-3.5h-1.9v2.9h-1v-2.7c-0.4,0.4-0.9,0.7-1.4,1
		c-0.2-0.2-0.5-0.6-0.7-0.8c1.2-0.6,2.1-1.5,2.8-2.5h-2.6v-0.9h3.1c0.2-0.3,0.4-0.7,0.5-1c-0.9,0.2-1.8,0.4-2.6,0.6
		c-0.1-0.2-0.4-0.6-0.6-0.8c1.2-0.2,2.5-0.4,3.6-0.8c-1-0.3-2-0.6-2.8-0.9l0.7-0.6c1.1,0.3,2.3,0.6,3.5,1c0.9-0.3,1.7-0.7,2.3-1.1
		l1,0.6c0,0-0.1,0.1-0.2,0.1c0,0-0.1,0-0.1,0c-0.5,0.3-1.1,0.6-1.7,0.9c0.9,0.3,1.7,0.7,2.3,0.9l-0.8,0.7c-0.7-0.4-1.7-0.8-2.8-1.2
		c-0.4,0.1-0.8,0.3-1.3,0.4l0.8,0.2c0,0.1-0.1,0.1-0.3,0.1c-0.1,0.3-0.2,0.5-0.4,0.8h5.4V168.8z"/>
	<path d="M39.3,169.2c-1,0-1.3-0.3-1.3-1.3v-1.6h-0.7v-0.9h2.1v-1.1l1.2,0.1c0,0.1-0.1,0.2-0.2,0.2v0.8h2v0.9h-3.4v1.6
		c0,0.3,0.1,0.4,0.3,0.4h1.7c0.2,0,0.6,0,0.8-0.1l0.1,0.7c0.9-0.9,1.1-2.4,1.1-4.3h3.2l0.2,0l0.5,0c-0.1,0.5-0.1,4-0.5,4.6
		c-0.2,0.3-0.5,0.4-1.2,0.4c-0.2,0-0.4,0-0.6,0c0-0.2-0.1-0.6-0.2-0.8c0.4,0,0.8,0,0.9,0c0.3,0,0.4,0,0.5-0.8h-2.3
		c-0.2,0.8-0.6,1.4-1.2,1.8c-0.1-0.2-0.5-0.5-0.7-0.6l0.1-0.1c-0.2,0-0.5,0-0.7,0H39.3z M42.7,173.3h4.4v0.9h-9.9v-0.9h4.4v-0.8h-3
		v-0.8h3v-0.8h-3.5v-0.8h8.2v0.8h-3.6v0.8h3.1v0.8h-3.1V173.3z M43.7,166.8c0,0.2-0.1,0.4-0.1,0.6h2.2c0-0.2,0-0.4,0-0.6H43.7z
		 M45.9,165.5h-2c0,0.2,0,0.4,0,0.6h2L45.9,165.5z"/>
	<path d="M53.6,166.6c0,0.1-0.1,0.2-0.3,0.2c-0.4,3.5-1.5,6-3.3,6c-1,0-1.9-1-1.9-2.7c0-2.7,2.1-4.8,4.9-4.8c3.1,0,4.5,1.9,4.5,4.1
		c0,2.6-1.4,3.8-4,4.5c-0.2-0.2-0.4-0.6-0.7-0.9c2.5-0.5,3.6-1.7,3.6-3.5c0-1.8-1.2-3.1-3.4-3.1c-0.2,0-0.3,0-0.4,0L53.6,166.6z
		 M52.3,166.4c-1.9,0.3-3.1,1.9-3.1,3.6c0,1,0.4,1.7,0.9,1.7C51.2,171.7,52,169.1,52.3,166.4z"/>
	<path d="M68.6,169.6h-4.5c-0.1,0.2-0.2,0.5-0.4,0.7h3.9l0.2,0l0.5,0.1c0,0.1,0,0.2,0,0.3c-0.2,2.2-0.3,3.1-0.6,3.4
		c-0.3,0.3-0.6,0.4-1.8,0.3c0-0.2-0.1-0.6-0.2-0.8c0.4,0,0.7,0,0.9,0c0.2,0,0.2,0,0.3-0.1c0.2-0.2,0.3-0.8,0.5-2.4h-0.7
		c-0.4,1.3-1.2,2.7-2,3.4c-0.2-0.2-0.5-0.5-0.7-0.6c0.8-0.6,1.5-1.7,1.9-2.8h-0.9c-0.6,1.1-1.6,2.3-2.5,2.9
		c-0.2-0.2-0.5-0.5-0.7-0.6c0.9-0.5,1.7-1.4,2.3-2.3h-0.9c-0.4,0.5-0.9,0.9-1.4,1.2c-0.2-0.2-0.5-0.5-0.6-0.6c0.4-0.2,0.7-0.5,1-0.8
		v0c-1.1,0.5-2.3,1.1-3,1.4c0,0.1-0.1,0.2-0.1,0.2l-0.4-1.1c0.4-0.1,0.9-0.3,1.4-0.6v-3.3h-1.2v-1h1.2v-2.3l1.2,0.1
		c0,0.1-0.1,0.1-0.2,0.2v2.1h1.1v1h-1.1v2.9l1-0.4c0,0,0,0.1,0.2,0.9c0.4-0.4,0.8-0.9,1.1-1.4h-1.4v-0.9h6.9V169.6z M67.8,164.6v3.6
		h-5.1v-3.6H67.8z M66.8,166.1v-0.7h-3.2v0.7H66.8z M66.8,167.5v-0.7h-3.2v0.7H66.8z"/>
	<path d="M71.6,168c-0.6,0.4-1.2,0.8-1.8,1.1c-0.1-0.2-0.4-0.6-0.6-0.8c1.9-0.9,3.7-2.6,4.5-4l1.4,0.1c0,0.1-0.1,0.2-0.3,0.2
		c1.1,1.4,3,2.9,4.6,3.6c-0.2,0.3-0.5,0.6-0.7,0.9c-0.6-0.3-1.2-0.7-1.8-1.1v0.8h-5.5V168z M70.9,174.4V170h6.8v4.4h-1V174h-4.7v0.4
		H70.9z M76.9,167.9c-1-0.8-2-1.7-2.6-2.5c-0.6,0.8-1.5,1.7-2.5,2.5H76.9z M76.7,170.9h-4.7v2.2h4.7V170.9z"/>
	<path d="M81,173.8c-0.3-0.8-0.5-2.5-0.5-4c0-1.5,0.2-3.2,0.6-4.9l1.4,0.3c0,0.1-0.2,0.2-0.3,0.2c-0.6,2.4-0.6,4.2-0.6,5
		c0,0.6,0,1.1,0.1,1.4c0.2-0.5,0.6-1.5,0.8-1.9l0.6,0.7c-0.1,0.2-1.1,2.2-1.1,2.7c0,0.2,0,0.3,0.1,0.5L81,173.8z M83.8,167.3
		c0.5,0,2,0,2.5,0c0-0.9-0.1-1.6-0.1-2.4l1.4,0.1c0,0.1-0.1,0.2-0.3,0.2c0,0.6,0,1.1,0,2.1c0.8-0.1,1.4-0.2,2-0.4l0.1,1.1
		c-0.5,0.2-1.2,0.3-2.1,0.3c0,1.1,0.1,2.2,0.1,2.9c0.8,0.3,1.6,0.8,2.1,1.3l-0.6,1c-0.4-0.4-0.9-0.8-1.5-1.1
		c-0.1,1.1-0.5,1.8-1.9,1.8c-1.3,0-2.1-0.7-2.1-1.6c0-1.1,1.1-1.7,2.1-1.7c0.3,0,0.5,0,0.8,0.1c0-0.6-0.1-1.6-0.1-2.5
		c-0.3,0-0.7,0-1,0h-1.6L83.8,167.3z M86.6,171.7c-0.3-0.1-0.6-0.2-0.9-0.2c-0.6,0-1.2,0.2-1.2,0.8c0,0.5,0.5,0.7,1.2,0.7
		c0.7,0,0.9-0.3,0.9-1L86.6,171.7z"/>
	<path d="M98.2,173.4c-0.9,0.2-2.1,0.2-3.2,0.2c-0.9,0-1.7,0-2.2-0.1c-1.3-0.3-1.9-1.2-1.9-2.1c0-0.8,0.4-1.7,1-2.3l0.9,0.4
		c-0.5,0.5-0.9,1.2-0.9,1.7c0,0.6,0.4,1.1,1.2,1.3c0.4,0.1,1,0.1,1.6,0.1c1.1,0,2.3-0.1,3.3-0.3L98.2,173.4z M93.2,167.8
		c0.5-0.4,1.1-0.8,1.6-1.1v0c-0.7,0.1-2.4,0.1-3.4,0.1c0-0.3,0-0.8,0-1c1,0,3.2,0,4.2-0.1c0.6,0,1.4-0.1,2-0.2l0.1,1.1
		c-1.3,0.2-2.9,1.2-3.6,1.8L93.2,167.8z M98.1,169.5c-0.3-0.4-0.9-1.1-1.4-1.4l0.5-0.4c0.5,0.4,1.1,1,1.4,1.4L98.1,169.5z
		 M99.3,168.4c-0.3-0.4-0.9-1.1-1.4-1.4l0.5-0.4c0.5,0.4,1.1,1,1.4,1.4L99.3,168.4z"/>
	<path d="M100.8,167.3c0.7,0.2,1.7,0.7,2.1,1l-0.5,0.9c-0.5-0.4-1.4-0.8-2.1-1.1L100.8,167.3z M100.7,173.6c0.6-0.8,1.4-2.2,2.1-3.5
		l0.8,0.7c-0.6,1.1-1.3,2.4-1.8,3.2c0,0.1,0.1,0.1,0.1,0.2c0,0.1,0,0.1-0.1,0.2L100.7,173.6z M101.5,164.4c0.7,0.3,1.6,0.8,2.1,1.1
		l-0.6,0.8c-0.4-0.4-1.3-0.9-2-1.2L101.5,164.4z M107.4,173.1h3v1h-7.1v-1h3v-2.4H104v-1h2.3v-2.1h-2.7v-1h3.6
		c-0.5-0.5-1.5-1.2-2.3-1.6l0.7-0.8c0.9,0.4,2,1.1,2.6,1.7l-0.6,0.7h2.6v1h-2.8v2.1h2.4v1h-2.4V173.1z"/>
	<path d="M121,167.1h-2c0.5,0.2,0.5,0.2,0.6,0.2c0,0.1-0.1,0.1-0.3,0.1c-0.6,1.6-1.4,2.9-2.4,4c1.2,0.9,2.6,1.6,4.3,2
		c-0.2,0.2-0.6,0.7-0.7,1c-1.8-0.5-3.3-1.2-4.4-2.2c-1.2,1-2.6,1.7-4.4,2.2c-0.1-0.3-0.4-0.7-0.6-0.9c1.7-0.5,3.1-1.1,4.2-2
		c-1.1-1.1-1.9-2.5-2.5-4.2l0.6-0.2h-2.2v-1h4.4v-1.8l1.3,0.1c0,0.1-0.1,0.2-0.2,0.2v1.6h4.4V167.1z M113.8,167.1
		c0.5,1.4,1.3,2.6,2.3,3.6c0.9-1,1.7-2.2,2.2-3.6H113.8z"/>
	<path d="M130.4,164.7c0,0.1-0.1,0.1-0.3,0.1c-0.3,0.4-0.7,0.8-1.1,1.2h2.7v0.9H122v-0.9h2.7c-0.2-0.4-0.7-0.9-1.1-1.3l0.9-0.4
		c0.5,0.4,1,1.1,1.3,1.5l-0.6,0.3h3.4l-0.5-0.2c0.4-0.4,0.9-1.1,1.2-1.6L130.4,164.7z M126.6,167.9v5.5c0,1-0.5,1-1.9,1
		c0-0.3-0.2-0.6-0.3-0.9c0.2,0,0.4,0,0.6,0c0.7,0,0.7,0,0.7-0.2v-1.2h-1.9v2.3h-1v-6.5H126.6z M125.6,168.7h-1.9v0.9h1.9V168.7z
		 M123.6,171.3h1.9v-0.9h-1.9V171.3z M128.8,168c0,0.1-0.1,0.2-0.2,0.2v4.2h-1V168L128.8,168z M131,173.3c0,1-0.4,1.2-2.3,1.2
		c-0.1-0.3-0.2-0.7-0.4-1c0.3,0,0.6,0,0.9,0c0.8,0,0.8,0,0.8-0.2v-5.6l1.3,0.1c0,0.1-0.1,0.2-0.2,0.2V173.3z"/>
	<path d="M135.1,165.2c0,0.1-0.1,0.2-0.3,0.2c-0.4,1.8-0.6,3.8-0.6,4.8c0,0.7,0,1.4,0.1,1.8c0.2-0.4,0.6-1.4,0.8-1.8l0.5,0.7
		c-0.4,0.9-0.8,1.5-0.9,2c-0.1,0.2-0.1,0.3-0.1,0.5c0,0.1,0,0.2,0.1,0.4l-1.1,0.2c-0.4-1-0.5-2.3-0.5-3.8c0-1.4,0.2-3.4,0.5-5.2
		L135.1,165.2z M141.8,173.1c-0.4,0-0.8,0-1.2,0c-0.7,0-1.4,0-1.9-0.1c-1.4-0.2-2-1-2-1.9c0-0.8,0.4-1.4,1-2.1l1,0.4
		c-0.5,0.5-0.9,1-0.9,1.6c0,1,1.3,1.1,2.6,1.1c0.5,0,1,0,1.5-0.1L141.8,173.1z M136.8,166.3c1.3,0,3.3-0.2,4.6-0.4l0.1,1.1
		c-1.3,0.2-3.4,0.4-4.7,0.4L136.8,166.3z"/>
	<path d="M150.6,173.4c-0.9,0.2-2.1,0.2-3.2,0.2c-0.9,0-1.7,0-2.2-0.1c-1.3-0.3-1.9-1.2-1.9-2.1c0-0.8,0.4-1.7,1-2.3l0.9,0.4
		c-0.5,0.5-0.9,1.2-0.9,1.7c0,0.6,0.4,1.1,1.2,1.3c0.4,0.1,1,0.1,1.6,0.1c1.1,0,2.3-0.1,3.3-0.3L150.6,173.4z M145.5,167.8
		c0.5-0.4,1.1-0.8,1.6-1.1v0c-0.7,0.1-2.4,0.1-3.4,0.1c0-0.3,0-0.8,0-1c1,0,3.2,0,4.2-0.1c0.6,0,1.4-0.1,2-0.2l0.1,1.1
		c-1.3,0.2-2.9,1.2-3.6,1.8L145.5,167.8z M150.4,169.5c-0.3-0.4-0.9-1.1-1.4-1.4l0.5-0.4c0.5,0.4,1.1,1,1.4,1.4L150.4,169.5z
		 M151.6,168.4c-0.3-0.4-0.9-1.1-1.4-1.4l0.5-0.4c0.5,0.4,1.1,1,1.4,1.4L151.6,168.4z"/>
	<path d="M155.4,167.6v0.8c0.4,0.4,1.4,1.6,1.6,1.8l-0.6,0.8c-0.2-0.4-0.6-1-1-1.5v4.8h-1v-4.9c-0.4,1.1-0.9,2.2-1.4,2.9
		c-0.1-0.3-0.3-0.7-0.5-0.9c0.7-0.9,1.4-2.5,1.8-3.9h-1.6v-1h1.7v-2.3l1.2,0.1c0,0.1-0.1,0.2-0.2,0.2v2h1.5v1H155.4z M157.3,164.9h5
		v9.3h-1v-0.6h-3v0.7h-1V164.9z M161.3,165.9h-3v1.6h3V165.9z M158.3,168.5v1.7h3v-1.7H158.3z M158.3,172.7h3v-1.7h-3V172.7z"/>
	<path d="M167.4,166.1v0.8h-4.1v-0.8H167.4z M167.1,170.6v3.2h-2.4v0.5h-0.9v-3.7H167.1z M167.1,167.6v0.8h-3.2v-0.8H167.1z
		 M163.9,169.9v-0.8h3.2v0.8H163.9z M167.1,164.7v0.8h-3.1v-0.8H167.1z M166.2,171.4h-1.5v1.6h1.5V171.4z M171.3,168.9
		c0,0.1-0.1,0.2-0.3,0.2v1.4c0,0.7,0.4,2.3,2.6,3.1c-0.2,0.2-0.5,0.6-0.6,0.9c-1.5-0.6-2.3-1.9-2.5-2.6c-0.2,0.7-1,1.9-2.7,2.6
		c-0.1-0.2-0.4-0.6-0.6-0.8c2.3-0.8,2.8-2.4,2.8-3.1v-1.6L171.3,168.9z M169.2,169.9c-0.1,0.8-0.5,1.7-1.1,2.2l-0.8-0.5
		c0.5-0.4,0.8-1.2,1-1.9L169.2,169.9z M171.3,164.4c0,0.1-0.1,0.2-0.2,0.2c-0.1,0.8-0.1,1.5-0.3,2.1c0.9,0.5,2.1,1.3,2.7,1.8
		l-0.7,0.8c-0.5-0.5-1.5-1.2-2.4-1.7c-0.4,0.8-1.1,1.4-2.4,1.8c-0.1-0.2-0.4-0.6-0.6-0.8c2.3-0.7,2.5-2,2.6-4.2L171.3,164.4z
		 M167.6,166.8c0.4-0.4,0.7-1.1,0.8-1.8l0.8,0.2c-0.1,0.7-0.4,1.5-0.9,2L167.6,166.8z M173.4,165.4c-0.1,0.1-0.2,0.1-0.3,0.1
		c-0.2,0.5-0.6,1.1-1,1.6c0,0-0.7-0.3-0.7-0.3c0.3-0.5,0.7-1.2,0.9-1.8L173.4,165.4z M173.5,170.1c0,0.1-0.1,0.1-0.3,0.1
		c-0.3,0.5-0.7,1.2-1.1,1.7l-0.8-0.3c0.3-0.5,0.7-1.3,1-1.9L173.5,170.1z"/>
	<path d="M184,166.2h-4.3c0,0.1-0.1,0.1-0.2,0.1v1.7l0.1-0.2c1.3,0.6,3,1.6,3.9,2.3l-0.7,0.9c-0.7-0.6-2.1-1.5-3.3-2.1v5.5h-1.1
		v-8.2h-4.1v-1h9.7V166.2z"/>
	<path d="M193.8,167c-0.9,0.2-2.2,0.4-3.4,0.5c0.4,1.3,0.9,2.1,1.9,2.6l-0.8,0.9c-0.5-0.4-1.1-0.7-2.4-0.7l-0.2-0.9
		c0.4,0,0.9,0.1,1.1,0.1c-0.3-0.4-0.6-1-0.8-1.9c-0.5,0-1,0.1-1.6,0.1c-0.7,0-1.9,0-2.6,0v-1c0.6,0,1.5,0,2.6,0c0.5,0,1,0,1.3-0.1
		c-0.1-0.6-0.2-1.3-0.3-2.1l1.5,0c0,0.1-0.1,0.2-0.3,0.3c0,0.6,0.1,1.2,0.2,1.7c1.2-0.1,2.6-0.3,3.4-0.6L193.8,167z M191.8,174
		c-0.5,0-1.1,0-2,0c-2.4,0-3.9-0.9-3.9-2.2c0-0.6,0.3-1.2,0.9-1.8l0.8,0.6c-0.5,0.4-0.7,0.8-0.7,1.2c0,0.9,1.2,1.2,2.8,1.2
		c0.9,0,1.5,0,2-0.1L191.8,174z"/>
	<path d="M196.5,165.8c0,0.1-0.1,0.2-0.3,0.2c-0.2,0.8-0.2,1.9-0.2,2.9c0,2.9,1,3.6,1.5,3.6c0.4,0,0.9-1.1,1.2-2.1
		c0.2,0.2,0.6,0.5,0.9,0.7c-0.6,1.9-1.3,2.6-2.1,2.6c-1.5,0-2.4-1.9-2.5-3.8c0-0.4,0-0.9,0-1.3c0-0.9,0.1-2,0.2-3L196.5,165.8z
		 M203,170.9c-0.3-1.9-1.2-3.2-2.6-4l0.7-0.8c1.5,0.8,2.7,2.3,3.1,4.4L203,170.9z"/>
	<path d="M207.6,172.9c0,0.8-0.7,1.5-1.5,1.5s-1.5-0.7-1.5-1.5c0-0.8,0.7-1.5,1.5-1.5C207,171.4,207.6,172.1,207.6,172.9z
		 M207.2,172.9c0-0.6-0.5-1.1-1.1-1.1c-0.6,0-1.1,0.5-1.1,1.1c0,0.6,0.5,1.1,1.1,1.1C206.7,174,207.2,173.5,207.2,172.9z"/>
	<path d="M21.1,181.5v-0.7h-4.3V180h2.6V179h-1.9v-0.9h1.9v-0.9l1.3,0.1c0,0.1-0.1,0.2-0.3,0.2v0.7h2.4v-0.9l1.3,0.1
		c0,0.1-0.1,0.2-0.3,0.2v0.7h1.9v0.9h-1.9v0.9h2.7v0.9h-4.4v0.7h3.4v3.8h-7.6v-3.8H21.1z M20.9,186c0,0-0.1,0.1-0.2,0.1
		c-0.7,0.5-2.1,1-3.2,1.3c-0.2-0.2-0.5-0.5-0.7-0.7c1.1-0.3,2.5-0.8,3.2-1.2L20.9,186z M18.9,182.3v0.8h2.2v-0.8H18.9z M18.9,183.8
		v0.8h2.2v-0.8H18.9z M20.4,179v0.9h2.4V179H20.4z M24.4,182.3h-2.3v0.8h2.3V182.3z M24.4,184.6v-0.8h-2.3v0.8H24.4z M23.2,185.4
		c1.2,0.4,2.6,0.9,3.4,1.3l-0.9,0.7c-0.7-0.4-2-0.9-3.2-1.3L23.2,185.4z"/>
	<path d="M29.7,185.4c0,0.7,0.2,0.8,1.4,0.8h4c1,0,1.2-0.3,1.3-1.5c0.3,0.2,0.7,0.3,1,0.4c-0.2,1.6-0.6,2.1-2.3,2.1h-4
		c-1.9,0-2.5-0.3-2.5-1.8V181c-0.2,0.2-0.4,0.4-0.7,0.5c-0.2-0.2-0.5-0.6-0.7-0.7c1.5-1,2.6-2.4,3.2-3.5l1.3,0.2
		c0,0.1-0.1,0.2-0.3,0.2l-0.2,0.4h2.5l0.2-0.1l0.8,0.5c0,0.1-0.1,0.1-0.2,0.1c-0.2,0.4-0.6,1-0.9,1.4h3v4.1h-1.1v-0.5h-5.8V185.4z
		 M32.3,180c0.3-0.3,0.5-0.7,0.7-1.1h-2.5c-0.3,0.4-0.6,0.7-0.9,1.1H32.3z M29.7,180.9v1.8H32v-1.8H29.7z M35.5,182.7v-1.8H33v1.8
		H35.5z"/>
	<path d="M43.8,179.5c0,0.1-0.1,0.2-0.3,0.2c-0.4,3.5-1.5,6-3.3,6c-1,0-1.9-1-1.9-2.7c0-2.7,2.1-4.8,4.9-4.8c3.1,0,4.5,1.9,4.5,4.1
		c0,2.6-1.4,3.8-4,4.5c-0.2-0.2-0.4-0.6-0.7-0.9c2.5-0.5,3.6-1.7,3.6-3.5c0-1.8-1.2-3.1-3.4-3.1c-0.2,0-0.3,0-0.4,0L43.8,179.5z
		 M42.5,179.3c-1.9,0.3-3.1,1.9-3.1,3.6c0,1,0.4,1.7,0.9,1.7C41.4,184.7,42.2,182.1,42.5,179.3z"/>
	<path d="M52,181.3c0.2-0.5,0.5-1.4,0.6-1.9l1.1,0.3c0,0.1-0.1,0.1-0.3,0.1c-0.1,0.5-0.4,1.1-0.6,1.6h1.5v0.9h-5.7v-0.9h3.6
		L52,181.3z M54.2,178.4v0.9H49v-0.9h2.1v-1.2l1.2,0.1c0,0.1-0.1,0.2-0.2,0.2v0.9H54.2z M49.4,187.3v-4.2h4.4v4.1h-1v-0.5h-2.4v0.6
		H49.4z M50.5,179.5c0.2,0.5,0.4,1.2,0.5,1.6l-0.9,0.2c0-0.4-0.2-1.1-0.4-1.6L50.5,179.5z M52.8,184.1h-2.4v1.8h2.4V184.1z
		 M58.2,177.8l0.7,0.3c0,0.1-0.1,0.1-0.1,0.1c-0.4,0.9-0.9,2.1-1.4,3.2c1.1,1.1,1.5,1.9,1.5,2.6c0,1.9-1.3,1.9-1.9,1.9
		c-0.2,0-0.3,0-0.5,0c0-0.3-0.1-0.7-0.3-1c0.4,0,0.7,0,0.9,0c0.7,0,0.8-0.4,0.8-0.9c0-0.6-0.4-1.3-1.5-2.4c0.4-1,0.8-2,1.1-2.8h-1.6
		v8.5h-1v-9.5h3.2L58.2,177.8z"/>
	<path d="M66.4,177.4c0.7,1.4,2.1,3,3.3,3.9c-0.3,0.2-0.7,0.6-0.9,0.9c-0.3-0.3-0.6-0.6-0.9-0.9c0,0.1,0,0.2,0,0.3
		c-0.1,3.4-0.3,4.7-0.7,5.1c-0.2,0.3-0.5,0.4-0.9,0.5c-0.2,0-0.4,0-0.7,0c-0.3,0-0.7,0-1,0c0-0.3-0.2-0.7-0.3-1
		c0.7,0.1,1.3,0.1,1.6,0.1c0.2,0,0.3,0,0.5-0.2c0.3-0.3,0.4-1.3,0.5-3.9h-2.6c-0.3,2-0.9,4-3.8,5.1c-0.1-0.3-0.4-0.7-0.7-0.9
		c2.5-0.8,3.1-2.4,3.3-4.2h-2.1v-0.9c-0.3,0.3-0.7,0.6-1,0.9c-0.2-0.2-0.6-0.6-0.8-0.8c1.3-0.9,2.5-2.5,3.2-4.1l1.3,0.4
		c0,0.1-0.2,0.1-0.3,0.1c-0.5,1.2-1.3,2.4-2.2,3.3h5.9l0.2,0l0.6,0.1c-0.9-1-1.9-2.3-2.5-3.5L66.4,177.4z"/>
	<path d="M71.2,186.7c-0.3-0.8-0.5-2.5-0.5-4c0-1.5,0.2-3.2,0.6-4.9l1.4,0.3c0,0.1-0.2,0.2-0.3,0.2c-0.6,2.4-0.6,4.2-0.6,5
		c0,0.6,0,1.1,0.1,1.4c0.2-0.5,0.6-1.5,0.8-1.9l0.6,0.7c-0.1,0.2-1.1,2.2-1.1,2.7c0,0.2,0,0.3,0.1,0.5L71.2,186.7z M74,180.2
		c0.5,0,2,0,2.5,0c0-0.9-0.1-1.6-0.1-2.4l1.4,0.1c0,0.1-0.1,0.2-0.3,0.2c0,0.6,0,1.1,0,2.1c0.8-0.1,1.4-0.2,2-0.4l0.1,1.1
		c-0.5,0.2-1.2,0.3-2.1,0.3c0,1.1,0.1,2.2,0.1,2.9c0.8,0.3,1.6,0.8,2.1,1.3l-0.6,1c-0.4-0.4-0.9-0.8-1.5-1.1
		c-0.1,1.1-0.5,1.8-1.9,1.8c-1.3,0-2.1-0.7-2.1-1.6c0-1.1,1.1-1.7,2.1-1.7c0.3,0,0.5,0,0.8,0.1c0-0.6-0.1-1.6-0.1-2.5
		c-0.3,0-0.7,0-1,0H74L74,180.2z M76.8,184.7c-0.3-0.1-0.6-0.2-0.9-0.2c-0.6,0-1.2,0.2-1.2,0.8c0,0.5,0.5,0.7,1.2,0.7
		c0.7,0,0.9-0.3,0.9-1L76.8,184.7z"/>
	<path d="M81.9,178.5c1-0.4,2-0.9,2.6-1.3l1,0.9c-0.1,0.1-0.2,0.1-0.3,0.1c-0.7,0.4-1.8,0.8-2.9,1.2v1.8h2.9v1h-2.9v2.4h3v1h-3v0.9
		h-1v-8.1L81.9,178.5z M90.3,178.3v6.3c0,1.1-0.5,1.2-2.2,1.2c-0.1-0.3-0.2-0.8-0.4-1.1c0.4,0,0.7,0,1,0c0.5,0,0.6,0,0.6-0.2v-5.3
		h-2.4v8h-1v-9.1H90.3z"/>
	<path d="M97.1,180.7H93v0.6c0,1.6-0.1,4-0.8,5.6c-0.2-0.1-0.6-0.4-0.8-0.5c0.6-1.5,0.7-3.6,0.7-5.1v-3.7h5V180.7z M96.1,178.6H93
		v1.2h3.1V178.6z M97.3,182v3.3c0,0.7-0.2,0.9-1.3,0.9c0-0.2-0.1-0.6-0.3-0.8c0.3,0,0.5,0,0.6,0c0.1,0,0.1,0,0.1-0.1v-2.5h-0.8v4.5
		h-0.9v-4.5H94v3.4h-0.8V182h1.6v-1.1l1.1,0.1c0,0.1-0.1,0.1-0.2,0.2v0.9H97.3z M99.1,178.6c0,0.1-0.1,0.1-0.2,0.2v5.8h-1v-6.1
		L99.1,178.6z M100.1,177.5l1.2,0.1c0,0.1-0.1,0.2-0.2,0.2v8.4c0,1.1-0.5,1.2-2.3,1.2c0-0.3-0.2-0.7-0.3-1c0.3,0,0.6,0,0.9,0h0.5
		c0.2,0,0.3-0.1,0.3-0.2V177.5z"/>
	<path d="M112.1,178v1h-1.3v6.9c0,1.2-0.5,1.4-3,1.4c-0.1-0.3-0.3-0.8-0.4-1.1c0.5,0,1,0,1.4,0c0.9,0,0.9,0,0.9-0.3V179h-7.4v-1
		H112.1z M108,184.6h-3.6v0.9h-1v-5h4.6V184.6z M107,181.4h-2.6v2.2h2.6V181.4z"/>
	<path d="M115.9,177.5c0,0.1-0.1,0.1-0.3,0.1c-0.2,0.6-0.5,1.3-0.9,2c0.6,0,1.3,0,2-0.1c-0.2-0.4-0.4-0.7-0.7-1.1l0.9-0.4
		c0.6,0.8,1.2,1.8,1.4,2.5l-0.9,0.4c-0.1-0.2-0.1-0.4-0.2-0.6c-1.4,0.1-2.9,0.2-3.9,0.2c0,0.1-0.1,0.1-0.2,0.2l-0.3-1.1l0.9,0
		c0.4-0.7,0.8-1.7,1-2.4L115.9,177.5z M117.6,181.4v4.9c0,0.9-0.4,1.1-1.9,1.1c0-0.3-0.2-0.7-0.3-0.9c0.3,0,0.5,0,0.7,0
		c0.4,0,0.5,0,0.5-0.2v-0.9h-2v2h-0.9v-6H117.6z M116.6,182.2h-2v0.8h2V182.2z M114.6,184.6h2v-0.8h-2V184.6z M121.6,181.2
		c0.4,0,0.5-0.2,0.5-1.2c0.2,0.2,0.6,0.3,0.9,0.4c-0.1,1.4-0.4,1.7-1.3,1.7H120c-1.2,0-1.4-0.3-1.4-1.3v-3.5l1.3,0.1
		c0,0.1-0.1,0.2-0.2,0.2v1.5c0.9-0.3,1.7-0.7,2.3-1l0.7,0.8c0,0-0.1,0-0.2,0c-0.7,0.3-1.8,0.7-2.8,1v0.9c0,0.4,0.1,0.4,0.5,0.4
		H121.6z M119.6,185.9c0,0.4,0.1,0.4,0.6,0.4h1.6c0.4,0,0.5-0.2,0.5-1.4c0.2,0.2,0.6,0.3,0.9,0.4c-0.1,1.5-0.4,1.9-1.4,1.9H120
		c-1.2,0-1.5-0.3-1.5-1.3v-3.6l1.3,0.1c0,0.1-0.1,0.2-0.3,0.2v1.4c0.9-0.3,1.8-0.7,2.4-1.1l0.7,0.8c-0.1,0-0.1,0-0.2,0
		c-0.7,0.4-1.9,0.8-2.9,1.1V185.9z"/>
	<path d="M123.7,178.6c0.3,0,0.8,0,1.1,0c1.1-0.1,6.1-0.4,7.8-0.5l0,1.1c-0.9,0-1.5,0-2.3,0.6c-1.4,0.9-2.9,2.5-2.9,3.8
		c0,1.4,1.1,2.2,3.6,2.5l-0.5,1.1c-3.1-0.4-4.2-1.6-4.2-3.5c0-1.4,1.3-3.2,3.1-4.4c-1.3,0.1-4.1,0.3-5.3,0.4c0,0.1-0.2,0.2-0.3,0.2
		L123.7,178.6z M130.8,181c0.5,0.4,1.1,1,1.4,1.5l-0.5,0.4c-0.3-0.4-0.9-1.1-1.3-1.5L130.8,181z M132,180c0.5,0.4,1.1,1,1.4,1.5
		l-0.5,0.4c-0.3-0.4-0.9-1.1-1.3-1.5L132,180z"/>
	<path d="M134,179.1c0.7,0,4-0.1,4.7-0.1c0-0.2,0-1.3-0.1-1.6l1.5,0.1c0,0.1-0.1,0.2-0.3,0.2c0,0.3,0,0.8,0,1.3
		c1.4,0,2.8-0.1,3.5-0.1v1c-0.8,0-2.1,0-3.4,0c0,0.4,0,0.8,0,1.1c0,0.4,0,0.7,0,1c0.1,0.4,0.2,0.9,0.2,1.2c0,2.2-1.5,3.5-3.2,4.2
		c-0.2-0.2-0.5-0.6-0.8-0.8c1.4-0.5,2.3-1.2,2.6-2h0c-0.2,0.2-0.5,0.4-0.8,0.4c-1,0-1.9-0.8-1.9-1.9c0-1.2,1-2,2-2
		c0.3,0,0.6,0.1,0.9,0.2c0,0,0-0.1,0-0.1c0-0.2,0-0.6,0-1c-1.8,0.1-3.5,0.1-4.7,0.2L134,179.1z M139,182.8c0-0.8-0.3-1.2-0.9-1.2
		c-0.6,0-1.1,0.5-1.1,1.2c0,0.6,0.5,1.1,1,1.1C138.6,183.9,139,183.4,139,182.8z"/>
	<path d="M146,185.8c0,0.8-0.7,1.5-1.5,1.5s-1.5-0.7-1.5-1.5s0.7-1.5,1.5-1.5C145.4,184.3,146,185,146,185.8z M145.6,185.8
		c0-0.6-0.5-1.1-1.1-1.1c-0.6,0-1.1,0.5-1.1,1.1c0,0.6,0.5,1.1,1.1,1.1C145.1,186.9,145.6,186.4,145.6,185.8z"/>
</g>
</svg>
