<?xml version="1.0" encoding="utf-8"?>
<!-- Generator: Adobe Illustrator 18.0.0, SVG Export Plug-In . SVG Version: 6.00 Build 0)  -->
<!DOCTYPE svg PUBLIC "-//W3C//DTD SVG 1.1//EN" "http://www.w3.org/Graphics/SVG/1.1/DTD/svg11.dtd">
<svg version="1.1" id="Layer_1" xmlns="http://www.w3.org/2000/svg" xmlns:xlink="http://www.w3.org/1999/xlink" x="0px" y="0px"
	 viewBox="0 0 542 132" enable-background="new 0 0 542 132" xml:space="preserve">
<rect x="-1.2" y="-1" fill="#EC2426" width="545" height="134"/>
<rect x="2" y="40" fill="#FFFFFF" width="538" height="89"/>
<g>
	<g>
		<path fill="#FFFFFF" d="M15.2,29.5V13.8h-0.1l-3.3,1.7l-0.8-2.7l4.6-2.4h3.1v19H15.2z"/>
		<path fill="#FFFFFF" d="M24.3,20c0-5.8,2.1-9.9,6.4-9.9c4.5,0,6.2,4.4,6.2,9.7c0,6.3-2.3,9.9-6.3,9.9C26.1,29.7,24.3,25.3,24.3,20
			z M30.6,26.8c1.7,0,2.6-2.4,2.6-6.9c0-4.3-0.8-6.8-2.5-6.8c-1.6,0-2.6,2.3-2.6,6.8C28,24.4,28.9,26.8,30.6,26.8L30.6,26.8z"/>
		<path fill="#FFFFFF" d="M38.6,20c0-5.8,2.1-9.9,6.4-9.9c4.5,0,6.2,4.4,6.2,9.7c0,6.3-2.3,9.9-6.3,9.9C40.5,29.7,38.6,25.3,38.6,20
			z M45,26.8c1.7,0,2.6-2.4,2.6-6.9c0-4.3-0.8-6.8-2.5-6.8c-1.6,0-2.6,2.3-2.6,6.8C42.4,24.4,43.3,26.8,45,26.8L45,26.8z"/>
		<path fill="#FFFFFF" d="M55.4,19.4c-0.6,0.9-1.1,1.7-1.7,2.4c-0.2-0.8-0.9-2.4-1.3-3.2c1.9-2.4,3.8-6.5,5-10.5l3.3,1.1
			c-0.1,0.2-0.3,0.3-0.7,0.3c-0.5,1.6-1.1,3.1-1.8,4.7l0.8,0.2c-0.1,0.2-0.3,0.4-0.7,0.5v16.9h-2.9V19.4z M60.7,9.4h15.2v22.2H73v-1
			h-9.6v1.2h-2.7V9.4z M63.4,27.9H73V12h-9.6V27.9z M72.3,17.3h-3v2.4h2.4v6.8h-7v-6.8H67v-2.4H64v-2.2H67v-2.6l2.9,0.2
			c0,0.2-0.2,0.4-0.6,0.4v2h3V17.3z M69.4,24.5v-2.7h-2.5v2.7H69.4z"/>
		<path fill="#FFFFFF" d="M101.5,19.1c-1.7,3.1-4.1,4.6-6.8,4.6c-2.4,0-4.2-0.9-5.9-2.8c-1.1-1.1-2-1.8-3.7-1.8c-1.6,0-3,1.2-4,3
			l-2.8-1.5c1.7-3.1,4.1-4.6,6.8-4.6c2.4,0,4.2,0.9,5.9,2.8c1.1,1.2,2,1.8,3.7,1.8c1.6,0,3-1.2,4-3L101.5,19.1z"/>
		<path fill="#FFFFFF" d="M114.7,10.4v3.1h-6.5l-0.5,3.7c0.4-0.1,0.7-0.1,1.1-0.1c3.3,0,6.4,1.9,6.4,6c0,3.6-2.8,6.6-7.3,6.6
			c-1.9,0-3.6-0.5-4.5-1l0.7-2.8c0.8,0.4,2.1,0.9,3.6,0.9c1.9,0,3.7-1.2,3.7-3.4c0-2.3-1.7-3.6-4.9-3.6c-0.9,0-1.5,0.1-2.1,0.1
			l1.2-9.5H114.7z"/>
		<path fill="#FFFFFF" d="M117.6,20c0-5.8,2.1-9.9,6.4-9.9c4.5,0,6.2,4.4,6.2,9.7c0,6.3-2.3,9.9-6.3,9.9
			C119.5,29.7,117.6,25.3,117.6,20z M124,26.8c1.7,0,2.6-2.4,2.6-6.9c0-4.3-0.8-6.8-2.5-6.8c-1.6,0-2.6,2.3-2.6,6.8
			C121.4,24.4,122.3,26.8,124,26.8L124,26.8z"/>
		<path fill="#FFFFFF" d="M132,20c0-5.8,2.1-9.9,6.4-9.9c4.5,0,6.2,4.4,6.2,9.7c0,6.3-2.3,9.9-6.3,9.9C133.9,29.7,132,25.3,132,20z
			 M138.3,26.8c1.7,0,2.6-2.4,2.6-6.9c0-4.3-0.8-6.8-2.5-6.8c-1.6,0-2.6,2.3-2.6,6.8C135.7,24.4,136.7,26.8,138.3,26.8L138.3,26.8z"
			/>
		<path fill="#FFFFFF" d="M148.7,19.4c-0.6,0.9-1.1,1.7-1.7,2.4c-0.2-0.8-0.9-2.4-1.3-3.2c1.9-2.4,3.8-6.5,5-10.5l3.3,1.1
			c-0.1,0.2-0.3,0.3-0.7,0.3c-0.5,1.6-1.1,3.1-1.8,4.7l0.8,0.2c-0.1,0.2-0.3,0.4-0.7,0.5v16.9h-2.9V19.4z M154,9.4h15.2v22.2h-2.9
			v-1h-9.6v1.2H154V9.4z M156.8,27.9h9.6V12h-9.6V27.9z M165.6,17.3h-3v2.4h2.4v6.8h-7v-6.8h2.3v-2.4h-2.9v-2.2h2.9v-2.6l2.9,0.2
			c0,0.2-0.2,0.4-0.6,0.4v2h3V17.3z M162.8,24.5v-2.7h-2.5v2.7H162.8z"/>
	</g>
</g>
<g>
	<g>
		<path fill="#FFFFFF" d="M217.5,26h-7.3c2.1,1.3,5.1,2.3,8,2.8c-0.7,0.7-1.6,1.9-2,2.7c-3.1-0.8-6.2-2.3-8.5-4.3v4.5h-3v-4.4
			c-2.4,1.8-5.5,3.3-8.5,4.1c-0.4-0.7-1.3-1.9-1.9-2.5c2.8-0.6,5.8-1.6,8-3H195v-2.5h9.7v-1.1h-7.3v-2.2h7.3v-1.1h-8.6v-2.4h4.8
			c-0.2-0.6-0.5-1.4-0.9-2l0.3-0.1v0l-5.3,0v-2.5h3.4c-0.4-1-1-2.2-1.6-3.1l2.6-0.9c0.8,1.1,1.6,2.6,1.9,3.6l-1.2,0.5h2.3V8.1
			l3.5,0.2c0,0.3-0.2,0.4-0.7,0.5v3.5h1.9V8.1l3.5,0.2c0,0.3-0.3,0.4-0.7,0.5v3.5h2.1l-0.9-0.3c0.6-1,1.3-2.5,1.7-3.6l3.4,1.1
			c-0.1,0.2-0.3,0.3-0.7,0.3c-0.4,0.8-1,1.8-1.6,2.6h3.3v2.5h-4.6l0.2,0.1c-0.1,0.2-0.4,0.3-0.7,0.3c-0.3,0.5-0.6,1.1-1,1.7h5v2.4
			h-8.8v1.1h7.6v2.2h-7.6v1.1h9.9V26z M208.3,16.7c0.3-0.6,0.6-1.3,0.9-2h-6c0.4,0.7,0.7,1.4,0.9,2l-0.4,0.1v0L208.3,16.7z"/>
		<path fill="#FFFFFF" d="M240.5,19.8h-4c1.7,1.7,4.2,3,6.8,3.7c-0.7,0.6-1.6,1.8-2,2.5c-1.7-0.6-3.4-1.5-4.8-2.6v8.3h-3v-9.5
			l1.8,0.1c-0.8-0.8-1.6-1.7-2.2-2.6h-3.3c-0.7,0.9-1.4,1.7-2.2,2.5l2.4,0.1c0,0.3-0.2,0.4-0.7,0.5v1.2c0,2.6-0.7,5.9-5.7,8
			c-0.4-0.7-1.3-1.8-2-2.3c4.7-1.7,4.7-4.3,4.7-6.4c-1.5,1.2-3.2,2.2-5,2.8c-0.5-0.7-1.3-1.8-2-2.4c2.5-0.8,5-2.2,6.8-3.9h-3.8V8.9
			h18.2V19.8z M225.3,11.3v1.9h4.5v-1.9H225.3z M225.3,15.5v1.9h4.5v-1.9H225.3z M237.5,13.2v-1.9h-4.7v1.9H237.5z M237.5,17.4v-1.9
			h-4.7v1.9H237.5z"/>
		<path fill="#FFFFFF" d="M268,20h-11.9v11.8h-2.9v-2.3c-2.7,0.4-5.2,0.6-7,0.8c-0.1,0.2-0.2,0.4-0.4,0.4l-0.9-2.9l2.2-0.2V20h-2.2
			v-2.4H268V20z M264.7,9v7.7h-16.4V9H264.7z M253.2,21v-1h-3.3v1H253.2z M253.2,24.1v-1.1h-3.3v1.1H253.2z M249.8,27.4l3.3-0.3v-1
			h-3.3V27.4z M261.6,11.9v-1h-10.5v1H261.6z M261.6,14.7v-1h-10.5v1H261.6z M265.2,20.8l1.9,0.7c-0.1,0.2-0.2,0.3-0.3,0.4
			c-0.6,2.2-1.6,4-3,5.6c1.3,0.8,2.8,1.4,4.4,1.8c-0.6,0.6-1.4,1.7-1.8,2.4c-1.8-0.5-3.3-1.3-4.6-2.3c-1.2,1-2.6,1.7-4,2.3
			c-0.4-0.7-1.1-1.8-1.6-2.3c1.3-0.4,2.5-1.1,3.6-1.9c-1-1.1-1.8-2.4-2.4-3.8l1.6-0.5h-2.4v-2.3h8.1L265.2,20.8z M259.9,23.3
			c0.5,0.9,1.1,1.8,1.8,2.5c0.7-0.8,1.2-1.6,1.6-2.5H259.9z"/>
		<path fill="#FFFFFF" d="M275.9,17.9v8c1.6,2.5,4.6,2.5,9,2.5c2.9,0,6.3-0.1,8.6-0.3c-0.3,0.7-0.8,2.2-1,3.1
			c-1.9,0.1-4.5,0.2-6.9,0.2c-5.6,0-8.6,0-11.1-2.9c-1.1,1-2.2,2-3.2,2.7c0,0.3-0.1,0.4-0.4,0.5l-1.5-3.3c1.1-0.7,2.4-1.5,3.5-2.4
			v-5.3h-2.9v-2.8H275.9z M272.3,8.7c1.5,1.1,3.4,2.6,4.2,3.8l-2.4,2c-0.8-1.2-2.6-2.9-4.1-4L272.3,8.7z M283.2,14.3v-1.3H277v-2.5
			h6.2V8.1l3.6,0.2c0,0.3-0.2,0.4-0.7,0.5v1.8h7v2.5h-7v1.3h5.5V21h-4.2c1.5,1.6,3.8,3.1,5.9,3.9c-0.7,0.6-1.6,1.6-2,2.4
			c-1.7-0.9-3.6-2.4-5.1-4.1v4.7h-2.9v-4.6c-1.4,1.7-3.1,3.2-4.9,4.1c-0.4-0.7-1.3-1.8-1.9-2.3c2.1-0.9,4.2-2.4,5.6-4H278v-6.7
			H283.2z M280.8,16.5v2.2h2.4v-2.2H280.8z M288.6,16.5h-2.5v2.2h2.5V16.5z"/>
		<path fill="#FFFFFF" d="M317.7,12.7v16c0,2.7-1.1,3.1-4.5,3.1c-0.1-0.8-0.5-2-0.8-2.7c0.5,0,0.9,0,1.3,0c1.1,0,1.3,0,1.3-0.4v-3.9
			l-1.2,1.1c-0.5-1.3-1.3-2.9-2.1-4.6c-0.6,2-1.5,3.7-2.8,5.1c-0.2-0.4-0.6-0.8-1-1.2v6.7h-2.6v-4.1c-0.7,0.2-1.4,0.5-2.3,0.8
			c-0.2-1.3-0.9-3.4-1.5-5l2.3-0.8c0.6,1.4,1.2,3.1,1.5,4.4v-5.5l-1.9,0.9c-0.1-0.4-0.2-0.8-0.4-1.2l-1.6,0.1v10.3h-2.7v-8.1
			c-0.1,0.2-0.3,0.3-0.6,0.2c-0.3,2.1-0.7,4.5-1.5,6c-0.5-0.4-1.5-0.8-2.1-1.1c0.6-1.4,1-3.8,1.2-5.9l2.9,0.7v-2
			c-1.1,0.1-2.2,0.1-3,0.2c-0.1,0.3-0.3,0.4-0.5,0.4l-0.6-3h1.9c0.4-0.5,0.8-1,1.2-1.6c-0.8-1.1-2-2.5-3-3.4l1.4-2.1l0.6,0.5
			c0.8-1.4,1.5-3.1,1.9-4.4l3,1.2c-0.1,0.2-0.4,0.3-0.7,0.3c-0.7,1.4-1.7,3.3-2.6,4.6c0.4,0.4,0.7,0.7,0.9,1.1
			c0.9-1.5,1.8-2.9,2.4-4.2l2.9,1.3c-0.1,0.2-0.4,0.3-0.7,0.3c-1.2,1.9-2.9,4.4-4.6,6.4l2.8,0c-0.3-0.7-0.7-1.3-1-1.9l2.2-1
			c0.8,1.2,1.5,2.7,2,4v-7.4h4.8c0-1.5,0.1-3,0.1-4.6l3.5,0.2c0,0.3-0.2,0.4-0.7,0.5c0,1.4-0.1,2.7-0.1,4H317.7z M307.9,15.5v7.8
			c1.3-2,1.8-4.6,2-7.8H307.9z M315,15.5h-2.3c-0.1,0.6-0.1,1.2-0.2,1.8c0.9,1.5,1.8,3.1,2.5,4.6V15.5z"/>
		<path fill="#FFFFFF" d="M326.3,27c-0.1,0.2-0.3,0.3-0.6,0.2c-0.8,1.6-2.2,3.3-3.5,4.5c-0.6-0.5-1.6-1.3-2.2-1.7
			c1.2-1,2.5-2.6,3.2-4.2L326.3,27z M332.7,23.1v2.6H320v-2.6h2.3v-9.4h-2V11h2V8.4l3.3,0.2c0,0.2-0.2,0.4-0.6,0.4V11h3.2V8.4
			l3.4,0.2c0,0.2-0.2,0.4-0.6,0.4V11h1.7v2.6h-1.7v9.4H332.7z M328.1,13.7H325v1.5h3.2V13.7z M325,17.5v1.6h3.2v-1.6H325z M325,21.4
			v1.7h3.2v-1.7H325z M342.9,9.2v19.3c0,2.8-1.1,3.3-5.2,3.3c-0.1-0.8-0.5-2.1-0.9-2.9c0.7,0.1,1.4,0.1,1.9,0.1c1.2,0,1.3,0,1.3-0.5
			v-5.1h-4c-0.3,3.1-1.1,6.3-2.8,8.5c-0.4-0.5-1.5-1.3-2.1-1.7l-1.2,0.7c-0.5-1-1.7-2.7-2.7-3.8l2.3-1.3c0.8,0.8,1.7,1.9,2.3,2.9
			c1.6-3.1,1.7-7.1,1.7-10.2V9.2H342.9z M336.3,18.5c0,0.7,0,1.4-0.1,2.2h3.8v-3.1h-3.7V18.5z M340,11.9h-3.7v3h3.7V11.9z"/>
	</g>
</g>
<g>
	<path fill="#EC2426" d="M30.4,69.2l1.7,1.3c-0.1,0.1-0.3,0.2-0.5,0.1c-1,0.6-2.6,1.4-3.9,2c1.5,1,3.4,1.6,5.6,2
		c-0.4,0.4-1,1.2-1.2,1.7c-4.7-0.9-7.8-3.2-9.6-7c-0.8,0.6-1.8,1.2-2.8,1.7l0.4,0c0,0.2-0.2,0.3-0.5,0.3v2.3
		c1.6-0.2,3.4-0.4,5.1-0.5l0.1,1.6c-3.1,0.4-6.4,0.8-8.5,1.1c0,0.2-0.2,0.3-0.3,0.3L15,74.2c0.7-0.1,1.5-0.1,2.4-0.2V72
		c-1.4,0.5-2.9,1-4.4,1.2c-0.3-0.5-0.8-1.2-1.2-1.6c2.7-0.4,5.7-1.3,7.8-2.5h-7.5v-1.8h9.2V66c-0.3,0-0.7,0-1.2,0
		c-0.1-0.5-0.4-1-0.6-1.4c0.6,0,1.2,0,1.3,0c0.2,0,0.3-0.1,0.3-0.3V63h-2.3v3.6H17V63h-2.2v3h-1.7v-4.4H17v-1h-4.9v-1.5h1.6
		c-0.4-0.2-0.9-0.5-1.2-0.7c0.6-0.8,1.2-2.2,1.6-3.5l2,0.6c-0.1,0.2-0.3,0.2-0.5,0.2c-0.1,0.2-0.2,0.5-0.3,0.7H17v-1.6l2.4,0.1
		c0,0.2-0.2,0.3-0.5,0.3v1.1h4v1.5h-4v1.2h4.8v1.5h-4.8v1h4.2v2.7c0,0.9-0.1,1.3-1.1,1.5l2.1,0.1c0,0.2-0.2,0.3-0.5,0.4v1h9.4v1.8
		H30.4z M14.6,57.9c-0.2,0.4-0.5,0.8-0.7,1.2H17v-1.2H14.6z M24.4,69.2c0.5,0.9,1.1,1.7,1.8,2.3c1.3-0.6,2.9-1.6,4-2.3H24.4z
		 M27.2,56c0,0.2-0.2,0.3-0.5,0.4v7.5h-2v-8L27.2,56z M32.5,55.2c0,0.2-0.2,0.3-0.5,0.4v8.9c0,1.9-0.8,2.1-4.4,2.1
		c-0.1-0.5-0.4-1.3-0.7-1.8c1.2,0,2.3,0,2.6,0c0.3,0,0.4-0.1,0.4-0.4v-9.4L32.5,55.2z"/>
	<path fill="#EC2426" d="M38,63.9c-0.8,1.2-1.7,2.3-2.6,3.3c-0.2-0.5-0.8-1.6-1.1-2.1c2.2-2.3,4.4-6.2,5.7-10l2.5,0.9
		c-0.1,0.2-0.3,0.3-0.6,0.3c-0.6,1.6-1.3,3.1-2.1,4.6l0.8,0.2c0,0.2-0.2,0.3-0.5,0.3v15H38V63.9z M56.2,60.8h-6.9v2.9h6.3v2h-6.3
		v3.1h6.6v2h-6.6v5.4H47V60.8h-1.6c-0.9,1.9-2,3.6-3.1,4.9c-0.4-0.4-1.2-1.2-1.6-1.5c1.8-2.1,3.5-5.6,4.5-9.1l2.6,0.8
		c-0.1,0.2-0.3,0.3-0.6,0.3c-0.3,0.8-0.6,1.7-1,2.5h9.8V60.8z"/>
	<path fill="#EC2426" d="M67.2,63.7h-6.5v12.5h-2.1V55.8h8.6V63.7z M65.2,57.4h-4.5V59h4.5V57.4z M60.7,62.1h4.5v-1.7h-4.5V62.1z
		 M74.3,70.8h-2.9v5h-1.9v-5h-2.8c-0.2,1.5-1,3.8-3,5.2c-0.3-0.4-1-1-1.4-1.3c1.7-1.1,2.3-2.7,2.5-3.9h-2.6V69h2.7v-2.2h-2.3v-1.7
		h11.3v1.7h-2.4V69h2.9V70.8z M66.7,69h2.8v-2.2h-2.8V69z M77.8,55.8v17.8c0,2.2-0.8,2.6-4.7,2.6c-0.1-0.6-0.4-1.6-0.7-2.1
		c0.6,0,1.2,0,1.7,0c1.4,0,1.5,0,1.5-0.5v-9.8H69v-8H77.8z M75.7,57.4h-4.6V59h4.6V57.4z M71.1,62.2h4.6v-1.7h-4.6V62.2z"/>
	<path fill="#EC2426" d="M88.2,59.5l1.2,0.3c0,0.2-0.1,0.3-0.1,0.4c-0.3,4-1,7.2-2,9.7c1,0.8,2,1.7,2.6,2.4l-1.3,1.7
		c-0.5-0.7-1.3-1.5-2.2-2.3c-1.1,1.9-2.6,3.4-4.3,4.5c-0.3-0.5-0.9-1.3-1.3-1.7c1.6-0.8,3-2.2,4-4.1c-0.6-0.5-1.3-0.9-1.9-1.4
		L82.4,70l-1.8-1c0.5-2,1.2-4.7,1.8-7.5h-2v-2h2.4c0.3-1.6,0.6-3.2,0.9-4.7l2.5,0.3c0,0.2-0.2,0.3-0.5,0.3c-0.2,1.2-0.5,2.6-0.8,4.1
		h2.9L88.2,59.5z M84.5,61.6c-0.4,1.9-0.9,3.8-1.3,5.6c0.8,0.5,1.5,1,2.3,1.5c0.8-2,1.3-4.3,1.6-7H84.5z M98.4,58.6
		c1.5,1.8,3,4.3,3.5,6l-1.9,1c-0.1-0.4-0.3-0.9-0.6-1.5c-3.4,0.3-6.9,0.5-9.2,0.7c0,0.2-0.2,0.3-0.4,0.3l-0.8-2.4l1.9-0.1
		c0.9-2.2,1.9-5.5,2.3-7.9l2.7,0.6c-0.1,0.2-0.3,0.3-0.6,0.3c-0.6,2-1.5,4.7-2.4,6.8c1.7-0.1,3.6-0.2,5.5-0.3c-0.6-1-1.2-2-1.9-2.9
		L98.4,58.6z M90.8,76.2v-9.5h9.9v9.4h-2.1v-0.9h-5.7v1H90.8z M98.5,68.7h-5.7v4.6h5.7V68.7z"/>
	<path fill="#EC2426" d="M119.3,74.4c-1.7-1.4-4.1-2.9-6.2-3.7c0,1.1-0.2,2.2-0.5,2.8c-0.3,1.2-1.5,2.1-4,2.1
		c-3.1,0-5.5-1.5-5.6-3.9c0-2.5,2.5-3.9,5.4-3.9c0.7,0,1.6,0,2.3,0.2c0-0.5-0.1-0.9-0.1-1.3c-0.2-3-0.4-8.1-0.4-11.1l3.1,0.2
		c0,0.2-0.2,0.4-0.6,0.5l0,4.1c1.4,0,4.7-0.3,7.2-0.8l0.2,2.3c-2.3,0.4-5.5,0.6-7.4,0.6c0,1.6,0.1,3.1,0.2,4.4c0,0.5,0.1,1,0.1,1.5
		c2.8,0.9,5.5,2.4,7.7,4L119.3,74.4z M108.3,69.6c-1.9,0-3.3,0.8-3.3,2c0,1.4,1.6,2,3.3,2c1.5,0,2.5-0.7,2.5-1.9c0-0.7,0-1.3,0-1.8
		C110,69.6,109.1,69.6,108.3,69.6z"/>
	<path fill="#EC2426" d="M124.2,68.4c-0.4-1.4-0.6-3.3-0.6-4.6c0-1.9,0.2-4.4,0.7-7.2l2.9,0.4c-0.1,0.3-0.3,0.4-0.6,0.4
		c-0.4,1.8-0.8,4.7-0.8,6.3c0,0.3,0,0.6,0,0.8c0.5-1,1.3-2.5,1.8-3.3c0.3,0.4,0.8,1.1,1.1,1.4c-1.3,2.1-2.3,3.8-2.3,4.8
		c0,0.2,0,0.4,0.1,0.6L124.2,68.4z M136.9,55.9c0,0.3-0.2,0.4-0.6,0.5c0.2,1.9,0.4,5.1,0.4,7.8c0,4.4-1.5,8.5-8.6,11.4
		c-0.3-0.5-1.1-1.4-1.6-1.8c6.3-2.4,7.7-6.1,7.7-9.5c0-3-0.3-6.3-0.5-8.5L136.9,55.9z"/>
	<path fill="#EC2426" d="M152,60.6c-1.2,0.4-2.6,0.6-4.2,0.8c0,1.3,0,2.6,0,3.7c1.7-0.5,3.4-0.9,4.7-0.9c3.8,0,6.5,2,6.5,5.5
		c0,3.2-1.8,5.5-5.6,5.5c-1.6,0-3.1-0.6-4.4-2.1c0.4-0.5,0.8-1.2,1.1-1.7c1,1.2,2.1,1.7,3.3,1.7c2.1,0,3.2-1.5,3.2-3.4
		c0-2-1.5-3.5-4.2-3.5c-1.4,0-3.1,0.4-4.7,0.9c0,1.7,0,4.2,0,4.8c0,2.1-1.3,3.8-3.9,3.8c-2,0-4-1.2-4-3.7c0-1.5,1-3.1,2.8-4.4
		c0.8-0.6,1.8-1.2,2.9-1.6v-4.3c-1.6,0.1-3.3,0.1-5.2,0.1l0-2.2c1.9,0,3.7,0,5.3-0.1v-4.1l3,0.1c0,0.3-0.3,0.5-0.6,0.5
		c-0.1,0.9-0.1,2.1-0.1,3.2c1.4-0.2,2.7-0.5,3.8-0.9L152,60.6z M145.6,68c-0.7,0.3-3.7,1.8-3.7,3.9c0,1,0.6,1.8,1.9,1.8
		c1,0,1.8-0.7,1.8-1.9C145.7,71.2,145.7,69.6,145.6,68z M158.5,63.1c-1.2-1.2-3.3-2.4-5.2-3.2l1.1-1.9c2,0.8,4.1,2,5.4,3.1
		L158.5,63.1z"/>
	<path fill="#EC2426" d="M178,74.4c-1.7-1.4-4.1-2.9-6.2-3.7c0,1.1-0.2,2.2-0.5,2.8c-0.3,1.2-1.5,2.1-4,2.1c-3.1,0-5.5-1.5-5.6-3.9
		c0-2.5,2.5-3.9,5.4-3.9c0.7,0,1.6,0,2.3,0.2c0-0.5-0.1-0.9-0.1-1.3c-0.2-3-0.4-8.1-0.4-11.1l3.1,0.2c0,0.2-0.2,0.4-0.6,0.5l0,4.1
		c1.4,0,4.7-0.3,7.2-0.8l0.2,2.3c-2.3,0.4-5.5,0.6-7.4,0.6c0,1.6,0.1,3.1,0.2,4.4c0,0.5,0.1,1,0.1,1.5c2.8,0.9,5.5,2.4,7.7,4
		L178,74.4z M167,69.6c-1.9,0-3.3,0.8-3.3,2c0,1.4,1.6,2,3.3,2c1.5,0,2.5-0.7,2.5-1.9c0-0.7,0-1.3,0-1.8
		C168.7,69.6,167.7,69.6,167,69.6z"/>
	<path fill="#EC2426" d="M184,56.5c3.9,0,9.8-0.4,11.5-1l0.6,2.1c-0.3,0.1-0.6,0.3-1,0.6c-2.1,1.6-5.2,3.8-7.7,5.6
		c3.6-0.8,9.2-1.5,13-1.5v2.2c-0.3,0-0.7,0-1,0c-1.3,0-2.7,0.1-3.6,0.4c-2.3,0.7-6.1,3.4-6.1,5.9c0,0.7,0.3,1.4,1.1,1.8
		c1,0.5,3.5,0.8,5.3,0.9l-0.7,2.2c-2.7-0.2-5.1-0.6-6.6-1.6c-1.1-0.7-1.6-2-1.6-3.1c0-2.9,2.9-5.1,4.8-6.2
		c-3.6,0.5-7.1,1.2-10.6,2.1l-0.4-2.2c1.3-0.3,2.2-0.6,3-1c1.5-0.9,6.1-4.2,7.7-5.7c-1.7,0.3-5.4,0.5-6.8,0.6
		c-0.1,0.2-0.5,0.3-0.7,0.3L184,56.5z"/>
	<path fill="#EC2426" d="M207.2,74.2V59.5h0l-2.9,1.6l-0.6-1.9l3.9-2.1h2.2v17.2H207.2z"/>
	<path fill="#EC2426" d="M225.7,74.2h-10.4v-1.6l1.8-1.9c3.6-3.7,5.6-6.1,5.6-8.7c0-1.7-0.8-3.1-3-3.1c-1.3,0-2.5,0.7-3.3,1.3
		l-0.8-1.9c1-0.9,2.7-1.6,4.6-1.6c3.5,0,5.1,2.4,5.1,5c0,3.1-2.1,5.8-5.1,8.8l-1.4,1.4v0h6.9V74.2z"/>
	<path fill="#EC2426" d="M230.1,56.3h15.2v19.5H243v-1.4h-10.7v1.5h-2.2V56.3z M243,58.5h-10.7v5.7H243V58.5z M232.3,72.2H243v-5.9
		h-10.7V72.2z"/>
	<path fill="#EC2426" d="M268.3,56c-0.1,0.2-0.3,0.2-0.6,0.2c-0.5,0.7-1.2,1.6-1.9,2.4h3.5v4.7h-2.1v-2.8h-15.4v2.8h-2v-4.7h3.1
		c-0.5-0.8-1.2-1.8-1.9-2.6l1.8-0.8c0.8,0.8,1.8,2,2.2,2.8l-1.2,0.6h4.9c-0.3-0.9-1-2.2-1.7-3.1l1.9-0.7c0.7,1,1.6,2.3,1.9,3.2
		l-1.7,0.6h4.3l0,0c0.8-1,1.8-2.5,2.4-3.6L268.3,56z M265.6,67.4h-5.3c-0.2,0.5-0.4,1.1-0.6,1.7h7.9v7.1h-2.1v-0.7h-11.7v0.8h-2.1
		v-7.1h6c0.2-0.5,0.3-1.1,0.4-1.7h-4.5v-5.5h12.1V67.4z M265.5,73.6V71h-11.7v2.6H265.5z M255.5,63.5v2.2h8v-2.2H255.5z"/>
	<path fill="#EC2426" d="M292.5,70.8h-7.3c2.1,1.4,5,2.6,7.9,3.2c-0.5,0.5-1.1,1.3-1.4,1.9c-3-0.8-6.1-2.4-8.3-4.4v4.7h-2.1v-4.5
		c-2.2,1.8-5.4,3.4-8.3,4.2c-0.3-0.5-0.9-1.4-1.4-1.8c2.8-0.6,5.8-1.8,7.8-3.2h-7.2V69h9v-1.4h-6.9V66h6.9v-1.4h-8v-1.7h4.8
		c-0.2-0.6-0.6-1.5-1-2.1l0.5-0.1v0l-5.3,0v-1.8h3.4c-0.3-0.9-1-2.2-1.7-3.1l1.9-0.6c0.7,1,1.6,2.4,1.9,3.3l-1.2,0.5h2.6v-4l2.6,0.2
		c0,0.2-0.2,0.4-0.5,0.4v3.4h2.3v-4L286,55c0,0.2-0.2,0.4-0.5,0.4v3.4h2.4l-0.8-0.3c0.6-0.9,1.3-2.4,1.7-3.4l2.5,0.8
		c-0.1,0.2-0.3,0.3-0.5,0.2c-0.4,0.8-1.1,1.9-1.7,2.7h3.4v1.8h-4.7l0.4,0.1c-0.1,0.2-0.3,0.2-0.5,0.2c-0.3,0.5-0.7,1.3-1.1,1.8h5
		v1.7h-8.2V66h7.1v1.6h-7.1V69h9.2V70.8z M284.4,62.8c0.3-0.6,0.8-1.4,1.1-2.1h-6.3c0.4,0.7,0.8,1.5,1,2.1l-0.7,0.1h5.1L284.4,62.8z
		"/>
	<path fill="#EC2426" d="M296.7,56.3h15.2v19.5h-2.3v-1.4h-10.7v1.5h-2.2V56.3z M309.6,58.5h-10.7v5.7h10.7V58.5z M298.9,72.2h10.7
		v-5.9h-10.7V72.2z"/>
	<path fill="#EC2426" d="M320.8,56.6c0,0.3-0.3,0.4-0.7,0.4c-0.8,3.9-1.2,8-1.2,10.1c0,1.5,0,2.9,0.2,3.9c0.4-0.9,1.3-3,1.6-3.8
		l1.2,1.6c-0.8,1.9-1.6,3.2-1.9,4.3c-0.1,0.4-0.2,0.7-0.2,1.1c0,0.3,0,0.5,0.1,0.8l-2.3,0.4c-0.8-2.2-1-5-1-8c0-3,0.5-7.2,1.1-11.1
		L320.8,56.6z M334.9,73.5c-0.8,0-1.6,0.1-2.5,0.1c-1.6,0-3.1-0.1-4.1-0.2c-3-0.4-4.3-2-4.3-3.9c0-1.6,0.8-3,2.1-4.5l2.1,0.8
		c-1.1,1.1-1.8,2.2-1.8,3.4c0,2.1,2.9,2.3,5.5,2.3c1,0,2.1,0,3.1-0.2L334.9,73.5z M324.4,59.1c2.8-0.1,6.9-0.4,9.8-0.9l0.2,2.2
		c-2.8,0.5-7.3,0.8-9.9,0.8L324.4,59.1z"/>
	<path fill="#EC2426" d="M337.1,57.8c0.7,0,1.7,0,2.3-0.1c2.3-0.2,13-0.9,16.4-1l0,2.4c-1.9-0.1-3.1,0.1-4.8,1.3
		c-2.9,1.9-6.1,5.3-6.1,8c0,2.9,2.3,4.6,7.6,5.2l-1.1,2.3c-6.5-0.8-9-3.4-9-7.4c0-3,2.9-6.8,6.6-9.2c-2.5,0.1-8.6,0.7-11.1,0.9
		c-0.1,0.2-0.3,0.3-0.5,0.4L337.1,57.8z"/>
	<path fill="#EC2426" d="M375,66.6l2.8,0.2c0,0.2-0.2,0.3-0.5,0.4v9.1H375v-1.4h-13.8v1.4H359v-9.7l2.7,0.2c0,0.2-0.2,0.3-0.5,0.4
		v5.6h5.6v-7.5h-6.9v-8.1l2.7,0.2c0,0.2-0.2,0.3-0.5,0.4v5.5h4.7V55l2.8,0.2c0,0.2-0.2,0.3-0.5,0.4v7.5h5v-6l2.8,0.2
		c0,0.2-0.2,0.3-0.5,0.4v7.6h-7.3v7.5h5.9V66.6z"/>
	<path fill="#EC2426" d="M386.3,60.5l0.8,0.3c-0.1,0.2-0.3,0.3-0.6,0.2c-0.4,1.2-1,2.4-1.5,3.5l0.8,0.3c0,0.2-0.2,0.3-0.5,0.4v11.1
		h-2.1v-8.6c-0.6,0.8-1.2,1.6-1.8,2.3c-0.3-0.4-1-1.3-1.4-1.6c1.8-1.9,3.6-5.1,4.7-8.3l1.1,0.4v-1.5h-5v-2h5v-2.1l2.7,0.2
		c0,0.2-0.2,0.3-0.5,0.4v1.5h5.9v-2.1l2.7,0.2c0,0.2-0.2,0.3-0.5,0.4v1.5h5.1v2H396v1.7h-2.2v-1.7h-5.9v1.7H386.3z M401.2,61.6v2
		H399v10.2c0,2.2-1,2.4-5,2.4c-0.1-0.6-0.4-1.5-0.7-2c0.7,0,1.3,0,1.9,0c1.5,0,1.7,0,1.7-0.5V63.6h-10v-2H401.2z M394.5,72h-5.2v1.4
		h-1.9v-8h7.1V72z M392.6,67.2h-3.2v3h3.2V67.2z"/>
	<path fill="#EC2426" d="M424.4,61.1h-1.6c-0.6,3.6-1.5,6.6-2.9,9.1c1.2,1.8,2.8,3.2,4.7,4.2c-0.5,0.4-1.2,1.3-1.5,1.9
		c-1.9-1-3.4-2.3-4.6-4.1c-1.4,1.7-3.1,3-5.3,4.1c-0.2-0.5-0.8-1.5-1.2-1.9c2.2-1,3.9-2.4,5.2-4.2c-0.8-1.6-1.5-3.5-2.1-5.6
		c-0.4,0.7-0.8,1.4-1.2,2c-0.4-0.4-1.2-1.1-1.7-1.4c0.3-0.4,0.6-0.8,0.8-1.3l-1.5,0.8c-0.1-0.3-0.2-0.6-0.4-0.9
		c-2.8,0.3-5.6,0.5-7.4,0.7c0,0.2-0.2,0.3-0.4,0.3l-0.7-2.3l1.5-0.1c0.5-1.2,1.1-2.8,1.6-4.2h-2.9v-2h10.8v2h-5.2
		c-0.1,0.1-0.3,0.2-0.5,0.2c-0.4,1.1-1,2.6-1.6,3.9c1.2-0.1,2.6-0.2,3.9-0.3c-0.4-0.7-0.8-1.3-1.3-1.9l1.7-0.8
		c1,1.3,2.1,2.9,2.6,4.1c1.2-2.3,2-5.4,2.5-8.6l2.7,0.6c-0.1,0.2-0.3,0.3-0.6,0.3c-0.2,1.1-0.5,2.3-0.8,3.4h7.1V61.1z M409.3,72
		c1.5-0.2,3-0.5,4.5-0.7l0.1,2c-3.6,0.7-7.3,1.3-9.7,1.7c0,0.2-0.2,0.3-0.4,0.3l-0.8-2.4l4.2-0.6V69h-3.5v-2h3.5v-2.7l2.6,0.2
		c0,0.2-0.2,0.3-0.5,0.4V67h3.9v2h-3.9V72z M416.7,61.1c0,0.1-0.1,0.2-0.1,0.3c0.4,2.4,1.1,4.6,2,6.5c0.9-1.9,1.5-4.2,1.9-6.8H416.7
		z"/>
	<path fill="#EC2426" d="M431.2,55.9c0,0.3-0.3,0.5-0.7,0.5c-0.2,2.9-0.4,8.5-0.4,11.9c0,3.2,1.6,4.7,4.2,4.7c2.5,0,5.2-1.3,7.8-4
		c0.3,0.5,1,1.6,1.3,2c-2.8,2.9-5.9,4.4-9.1,4.4c-4.6,0-6.7-2.6-6.7-7c0-3,0.2-9.8,0.4-12.6L431.2,55.9z"/>
	<path fill="#EC2426" d="M444.9,58.2c1.4,0.1,3.4,0.1,5.1,0.1c0.9,0,1.8,0,2.6,0c0-1,0-2.2,0-3l2.9,0.2c0,0.3-0.2,0.4-0.6,0.5
		c0,0.6,0,1.6,0,2.3c2.5-0.1,5-0.3,7.2-0.8l0.3,2.1c-2.2,0.4-4.7,0.6-7.5,0.8l0.1,3.7c2.1-0.1,4.4-0.4,6.1-0.8l0.2,2
		c-1.7,0.4-4,0.6-6.3,0.7c0,1.3,0.1,2.5,0.1,3.4c2.1,0.7,4.3,1.8,6.4,3.4l-1.4,2c-1.7-1.4-3.4-2.5-5-3.2v0.9c0,2-1.5,3.3-4.4,3.3
		c-3,0-5.1-1.4-5.1-3.5c0-2.3,2.5-3.5,5.1-3.5c0.7,0,1.4,0,2.1,0.2c0-0.8,0-1.8-0.1-2.8c-0.5,0-1,0-1.4,0c-4,0-5.6-0.5-5.6-2.1
		c0-0.9,0.7-1.7,2.2-2.7l1.6,0.9c-1.3,0.7-1.5,1.1-1.5,1.3c0,0.5,0.9,0.6,2.7,0.7c0.6,0,1.3,0,1.9,0c0-1.3-0.1-2.5-0.1-3.7
		c-0.8,0-1.8,0-2.7,0c-1.5,0-3.7,0-5.1-0.1V58.2z M453,70.6c-0.8-0.2-1.6-0.3-2.3-0.3c-1.6,0-2.9,0.6-2.9,1.8c0,1.1,1.3,1.7,3.1,1.7
		c1.6,0,2.2-0.7,2.2-2V70.6z"/>
	<path fill="#EC2426" d="M464.7,58.7c1.4,0,8.4-0.2,10-0.3c0-0.3-0.1-2.8-0.1-3.4l3.1,0.1c0,0.2-0.2,0.4-0.6,0.5c0,0.6,0,1.7,0,2.7
		c2.9-0.1,5.9-0.2,7.3-0.2v2.1c-1.8,0-4.5,0-7.3,0.1c0,0.8,0,1.7,0,2.2c0,0.8,0.1,1.4,0.1,2.1c0.3,0.9,0.3,2,0.3,2.5
		c0,4.7-3.2,7.4-6.9,8.8c-0.4-0.5-1.2-1.3-1.7-1.8c2.9-1,4.8-2.6,5.5-4.3h0c-0.4,0.5-1,0.8-1.8,0.8c-2,0-3.9-1.6-3.9-4.1
		c0-2.5,2.1-4.3,4.3-4.3c0.7,0,1.3,0.2,1.8,0.5c0-0.1,0-0.2,0-0.3c0-0.4,0-1.3-0.1-2.1c-3.8,0.1-7.5,0.2-10,0.3L464.7,58.7z
		 M475.3,66.7c0-1.6-0.7-2.5-2-2.5s-2.3,1-2.3,2.5c0,1.4,1,2.3,2.2,2.3C474.5,69,475.3,67.9,475.3,66.7z"/>
	<path fill="#EC2426" d="M490.2,73c0,1.8-1.4,3.2-3.2,3.2c-1.8,0-3.2-1.4-3.2-3.2c0-1.8,1.4-3.2,3.2-3.2
		C488.8,69.8,490.2,71.3,490.2,73z M489.2,73c0-1.2-1-2.2-2.2-2.2c-1.3,0-2.3,1-2.3,2.2c0,1.3,1,2.3,2.3,2.3
		C488.3,75.3,489.2,74.2,489.2,73z"/>
</g>
<g>
	<g>
		<path d="M11.9,96.8v-1.8H23v1.8h-3.5v3.1h2.8v14.9h-1.8v-1.1h-6.2v1.4h-1.7V99.9h2.6v-3.1H11.9z M15.6,101.7h-1.2v6.7h6.2v-1.9
			c-0.2,0.1-0.4,0.1-0.6,0.1h-0.7c-0.9,0-1.2-0.3-1.2-1.6v-3.4h-1.3v1.3c0,1.4-0.3,3.3-1.4,4.6c-0.2-0.2-0.7-0.6-1-0.7
			c1-1.2,1.2-2.8,1.2-4V101.7z M14.3,112h6.2v-1.9h-6.2V112z M18,99.9v-3.1h-1.3v3.1H18z M19.8,105.4c0.3,0,0.3-0.1,0.3-1.2
			c0.1,0.1,0.3,0.2,0.5,0.3v-2.8h-1.4v3.3c0,0.3,0,0.4,0.2,0.4H19.8z M26,111.9c0,0.8,0.2,1,1.1,1h3.1c0.9,0,1.1-0.6,1.2-3.8
			c0.5,0.4,1.4,0.7,2,0.9c-0.3,3.9-0.8,4.9-3,4.9h-3.5c-2.3,0-3-0.6-3-3v-8.9h6.4v-5.9h-6.7v-2h8.8v10.9h-2.1v-1H26V111.9z"/>
		<path d="M40,103v7.3c1.6,2.5,4.7,2.5,8.3,2.5c2.6,0,5.8-0.1,7.8-0.2c-0.3,0.5-0.6,1.6-0.7,2.2c-1.6,0.1-3.9,0.1-6,0.1
			c-5.2,0-8.1,0-10.4-2.7c-1.1,1-2.2,1.9-3.1,2.6c0,0.3-0.1,0.3-0.3,0.4l-1.1-2.4c1-0.7,2.3-1.5,3.4-2.4V105h-3v-2H40z M36.7,94.5
			c1.5,1,3.2,2.4,4,3.6l-1.7,1.4c-0.7-1.1-2.4-2.6-3.9-3.7L36.7,94.5z M55.8,104.9H50c1,2.6,2.9,4.3,5.9,5.1
			c-0.5,0.4-1.1,1.3-1.4,1.8c-2.8-1-4.7-2.8-5.9-5.4c-0.8,1.9-2.5,3.8-5.9,5.3c-0.3-0.5-0.9-1.2-1.4-1.6c3.8-1.5,5.1-3.4,5.6-5.3
			h-5.7V103h6v-2.9h-5.2v-1.9h2.6c-0.3-1-1.1-2.4-1.9-3.4l1.8-0.8c0.9,1.1,1.8,2.6,2.1,3.6l-1.3,0.6h5.3l-1-0.5
			c0.8-1,1.7-2.6,2.2-3.8l2.5,1c-0.1,0.2-0.3,0.2-0.6,0.2c-0.5,0.9-1.4,2.2-2.2,3.1H55v1.9h-5.7v2.9h6.5V104.9z"/>
		<path d="M62.9,95.7c0,0.3-0.3,0.4-0.7,0.4c-0.8,3.9-1.2,8-1.2,10.1c0,1.5,0,2.9,0.2,3.9c0.4-0.9,1.3-3,1.6-3.8l1.2,1.6
			c-0.8,1.9-1.6,3.2-1.9,4.3c-0.1,0.4-0.2,0.7-0.2,1.1c0,0.3,0,0.5,0.1,0.8l-2.3,0.4c-0.8-2.2-1-5-1-8c0-3,0.5-7.2,1.1-11.1
			L62.9,95.7z M77,112.6c-0.8,0-1.6,0.1-2.5,0.1c-1.6,0-3.1-0.1-4.1-0.2c-3-0.4-4.3-2-4.3-3.9c0-1.6,0.8-3,2.1-4.5l2.1,0.8
			c-1.1,1.1-1.8,2.2-1.8,3.4c0,2.1,2.9,2.3,5.5,2.3c1,0,2.1,0,3.1-0.2L77,112.6z M66.5,98.2c2.8-0.1,6.9-0.4,9.8-0.9l0.2,2.2
			c-2.8,0.5-7.3,0.8-9.9,0.8L66.5,98.2z"/>
		<path d="M81.2,114c-0.7-1.7-1-5.3-1-8.4c0-3.2,0.5-6.8,1.2-10.5l2.9,0.6c0,0.2-0.3,0.4-0.6,0.4c-1.3,5-1.3,9-1.3,10.6
			c0,1.2,0,2.4,0.1,3c0.4-1.1,1.2-3.1,1.6-4.1l1.3,1.4c-0.2,0.5-2.3,4.6-2.3,5.8c0,0.3,0.1,0.6,0.2,1.1L81.2,114z M87.1,100.3
			c1,0,4.3,0,5.4-0.1c-0.1-1.9-0.2-3.5-0.2-5.2l3,0.1c0,0.2-0.2,0.4-0.6,0.5c0,1.3,0,2.4,0.1,4.4c1.7-0.2,3.1-0.5,4.2-0.9l0.2,2.2
			c-1,0.3-2.6,0.6-4.4,0.7c0.1,2.3,0.2,4.6,0.3,6.1c1.6,0.7,3.3,1.7,4.4,2.8l-1.2,2.1c-0.8-0.9-1.9-1.8-3.2-2.4
			c-0.1,2.3-1,3.7-4.1,3.7c-2.7,0-4.5-1.4-4.5-3.5c0-2.3,2.3-3.5,4.5-3.5c0.6,0,1.1,0.1,1.7,0.2c-0.1-1.3-0.2-3.4-0.3-5.3
			c-0.7,0-1.6,0.1-2.1,0.1h-3.3L87.1,100.3z M93,109.7c-0.6-0.2-1.3-0.4-1.9-0.4c-1.2,0-2.6,0.4-2.6,1.6c0,1.1,1.1,1.6,2.5,1.6
			c1.4,0,2-0.7,2-2.2L93,109.7z"/>
		<path d="M112.1,113.3h-10.4v-1.6l1.8-1.9c3.6-3.7,5.6-6.1,5.6-8.7c0-1.7-0.8-3.1-3-3.1c-1.3,0-2.5,0.7-3.3,1.3l-0.8-1.9
			c1-0.9,2.7-1.6,4.6-1.6c3.5,0,5.1,2.4,5.1,5c0,3.1-2.1,5.8-5.1,8.8l-1.4,1.4v0h6.9V113.3z"/>
		<path d="M135.3,103.8c-1.5,2.7-3.6,4.1-6,4.1c-2.1,0-3.7-0.8-5.3-2.5c-1.1-1.1-2-1.8-3.7-1.8c-1.7,0-3.1,1.2-4,2.9l-2-1.1
			c1.5-2.7,3.6-4.1,6-4.1c2.1,0,3.7,0.8,5.3,2.5c1.1,1.1,2,1.8,3.6,1.8c1.7,0,3.1-1.2,4-2.9L135.3,103.8z"/>
		<path d="M143.8,104c1.9,0.4,3.6,1.9,3.6,4.4c0,2.8-2.1,5.2-6,5.2c-1.8,0-3.4-0.5-4.2-1.1l0.7-2c0.6,0.4,2,1,3.4,1
			c2.4,0,3.4-1.6,3.4-3.1c0-2.2-1.9-3.2-3.9-3.2h-1.2v-1.9h1.1c1.5,0,3.4-0.9,3.4-2.8c0-1.3-0.9-2.4-2.7-2.4c-1.2,0-2.4,0.6-3.1,1
			l-0.7-1.9c0.9-0.6,2.5-1.3,4.3-1.3c3.2,0,4.8,1.9,4.8,4.1C146.9,101.7,145.8,103.3,143.8,104L143.8,104z"/>
		<path d="M152.1,95.4h15.2v19.5H165v-1.4h-10.7v1.5h-2.2V95.4z M165,97.6h-10.7v5.7H165V97.6z M154.3,111.3H165v-5.9h-10.7V111.3z"
			/>
		<path d="M176.5,103.7c0.7,0.6,2.8,2.8,3.2,3.4l-1.3,1.7c-0.4-0.7-1.2-1.9-2-2.9v9.5h-2.1v-9.4c-0.8,2.1-1.8,4.2-2.8,5.5
			c-0.2-0.6-0.7-1.5-1-2c1.3-1.6,2.6-4.4,3.4-6.8h-3.1v-2h3.5v-3.2c-1,0.3-2.1,0.5-3,0.8c-0.1-0.4-0.4-1.2-0.7-1.6
			c2.6-0.6,5.6-1.6,7.3-2.6l1.8,1.6c-0.1,0.1-0.3,0.1-0.5,0.1c-0.8,0.4-1.7,0.8-2.8,1.1v3.9h3v2h-3V103.7z M186.6,112.9h5.5v1.9
			h-13.2v-1.9h5.5v-2.6h-4.3v-1.8h4.3v-2.3h-4.8v-1.9h11.9v1.9h-5v2.3h4.4v1.8h-4.4V112.9z M190.8,95v7.7h-10.3V95H190.8z
			 M188.7,100.8v-4h-6.2v4H188.7z"/>
		<path d="M197.5,98.2v4.6c0,3.6-0.3,9.1-2.3,12.6c-0.4-0.4-1.3-1-1.8-1.2c1.9-3.3,2.1-8,2.1-11.4v-6.6h8.4V94l2.8,0.2
			c0,0.2-0.2,0.3-0.5,0.4v1.7h8.7v1.9H197.5z M211.6,107l1.4,0.7c-0.1,0.1-0.2,0.2-0.3,0.3c-1,1.8-2.4,3.2-4.2,4.3
			c1.9,0.6,4,1,6.4,1.3c-0.4,0.5-1,1.3-1.3,1.9c-2.8-0.4-5.3-1-7.4-2c-2.3,1-5.1,1.6-7.9,1.9c-0.2-0.5-0.6-1.3-0.9-1.8
			c2.3-0.2,4.7-0.7,6.7-1.3c-1.3-0.8-2.3-1.8-3.2-3l1.1-0.4h-3.6v-1.7h12.8L211.6,107z M210.8,105.8h-9.1v-3.6h-3.4v-1.7h3.4v-1.9
			l2.6,0.2c0,0.2-0.2,0.3-0.5,0.4v1.3h4.9v-1.9l2.7,0.2c0,0.2-0.2,0.3-0.5,0.4v1.3h3.8v1.7h-3.8V105.8z M203,108.8
			c0.8,1,2,1.8,3.4,2.5c1.3-0.7,2.5-1.5,3.4-2.5H203z M208.6,102.2h-4.9v2h4.9V102.2z"/>
		<path d="M223.3,105.8l-2.3,0.8v6.4c0,2-0.8,2.4-3.8,2.4c-0.1-0.5-0.3-1.4-0.6-2c0.5,0,0.9,0,1.2,0c1.1,0,1.1,0,1.1-0.4v-5.7
			c-0.7,0.2-1.3,0.4-1.8,0.6c0,0.2-0.2,0.4-0.3,0.4l-0.6-2.4c0.8-0.2,1.7-0.4,2.8-0.7v-4.6h-2.5v-2h2.5V94l2.5,0.1
			c0,0.2-0.2,0.3-0.5,0.4v4.1h2.1v2H221v4l2-0.6L223.3,105.8z M227.9,111.5l3.3-0.4l0,1.7c-3.1,0.5-6.3,0.9-8.3,1.2
			c0,0.2-0.2,0.3-0.3,0.3l-0.7-2.1c1.1-0.1,2.5-0.3,4-0.5v-3.1h-3v-1.8h3v-3l2.5,0.1c0,0.2-0.2,0.3-0.5,0.4v2.5h2.9v1.8h-2.9V111.5z
			 M226,101.5v-2.8h-2.7v-1.7h2.7v-3l2.5,0.2c0,0.2-0.2,0.3-0.5,0.3v2.5h2.7v1.7h-2.7v2.8h3.1v1.7h-8.3v-1.7H226z M234.3,94.1
			c0,0.2-0.2,0.3-0.5,0.4v7.5c1,0.8,3.6,3.3,4.3,3.9c-0.1,0.1-0.1,0.2-1.3,1.7c-0.6-0.8-1.8-2.3-2.9-3.4v11.1h-2V94L234.3,94.1z"/>
		<path d="M248.5,95.1c-0.1,0.3-0.3,0.4-0.8,0.5c-0.3,1.2-0.6,3.3-0.9,4.6c0.8-0.1,1.7-0.2,2.2-0.2c3.6,0,4.8,2.4,4.8,5.9
			c0,0.9-0.2,3.1-0.7,4.8c-0.7,2.6-2.2,3.8-4.2,3.8c-0.9,0-2.2-0.4-4.1-1.9c0.3-0.6,0.6-1.3,0.8-1.9c1.7,1.3,2.6,1.5,3.3,1.5
			c1.1,0,1.7-0.8,2.1-2.2c0.4-1.2,0.6-3.2,0.6-4.2c0-2.4-0.8-3.7-2.7-3.7c-0.6,0-1.5,0-2.5,0.2c-1.1,4.4-2.4,8.4-4.4,12.1l-2.1-1
			c2-3.5,3.2-6.8,4.2-10.8l-3.8,0.5l-0.2-2.2l4.4-0.5c0.3-1.7,0.6-3.7,0.9-5.6L248.5,95.1z M258.1,106.2c-0.6-3.2-2.7-6-4.8-7.7
			l1.7-1.3c2.4,1.7,4.8,5,5.4,8.1L258.1,106.2z"/>
		<path d="M263.7,107.5c-0.4-1.4-0.6-3.3-0.6-4.6c0-1.9,0.2-4.4,0.7-7.2l2.9,0.4c-0.1,0.3-0.3,0.4-0.6,0.4c-0.4,1.8-0.8,4.7-0.8,6.3
			c0,0.3,0,0.6,0,0.8c0.5-1,1.3-2.5,1.8-3.3c0.3,0.4,0.8,1.1,1.1,1.4c-1.3,2.1-2.3,3.8-2.3,4.8c0,0.2,0,0.4,0.1,0.6L263.7,107.5z
			 M276.4,95c0,0.3-0.2,0.4-0.6,0.5c0.2,1.9,0.4,5.1,0.4,7.8c0,4.4-1.5,8.5-8.6,11.4c-0.3-0.5-1.1-1.4-1.6-1.8
			c6.3-2.4,7.7-6.1,7.7-9.5c0-3-0.3-6.3-0.5-8.5L276.4,95z"/>
		<path d="M279.4,97.3c1.4,0.1,3.4,0.1,5.1,0.1c0.9,0,1.8,0,2.6,0c0-1,0-2.2,0-3l2.9,0.2c0,0.3-0.2,0.4-0.6,0.5c0,0.6,0,1.6,0,2.3
			c2.5-0.1,5-0.3,7.2-0.8l0.3,2.1c-2.2,0.4-4.7,0.6-7.5,0.8l0.1,3.7c2.1-0.1,4.4-0.4,6.1-0.8l0.2,2c-1.7,0.4-4,0.6-6.3,0.7
			c0,1.3,0.1,2.5,0.1,3.4c2.1,0.7,4.3,1.8,6.4,3.4l-1.4,2c-1.7-1.4-3.4-2.5-5-3.2v0.9c0,2-1.5,3.3-4.4,3.3c-3,0-5.1-1.4-5.1-3.5
			c0-2.3,2.5-3.5,5.1-3.5c0.7,0,1.4,0,2.1,0.2c0-0.8,0-1.8-0.1-2.8c-0.5,0-1,0-1.4,0c-4,0-5.6-0.5-5.6-2.1c0-0.9,0.7-1.7,2.2-2.7
			l1.6,0.9c-1.3,0.7-1.5,1.1-1.5,1.3c0,0.5,0.9,0.6,2.7,0.7c0.6,0,1.3,0,1.9,0c0-1.3-0.1-2.5-0.1-3.7c-0.8,0-1.8,0-2.7,0
			c-1.5,0-3.7,0-5.1-0.1V97.3z M287.6,109.7c-0.8-0.2-1.6-0.3-2.3-0.3c-1.6,0-2.9,0.6-2.9,1.8c0,1.1,1.3,1.7,3.1,1.7
			c1.6,0,2.2-0.7,2.2-2V109.7z"/>
		<path d="M299.3,97.8c1.4,0,8.4-0.2,10-0.3c0-0.3-0.1-2.8-0.1-3.4l3.1,0.1c0,0.2-0.2,0.4-0.6,0.5c0,0.6,0,1.7,0,2.7
			c2.9-0.1,5.9-0.2,7.3-0.2v2.1c-1.8,0-4.5,0-7.3,0.1c0,0.8,0,1.7,0,2.2c0,0.8,0.1,1.4,0.1,2.1c0.3,0.9,0.3,2,0.3,2.5
			c0,4.7-3.2,7.4-6.9,8.8c-0.4-0.5-1.2-1.3-1.7-1.8c2.9-1,4.8-2.6,5.5-4.3h0c-0.4,0.5-1,0.8-1.8,0.8c-2,0-3.9-1.6-3.9-4.1
			c0-2.5,2.1-4.3,4.3-4.3c0.7,0,1.3,0.2,1.8,0.5c0-0.1,0-0.2,0-0.3c0-0.4,0-1.3-0.1-2.1c-3.8,0.1-7.5,0.2-10,0.3L299.3,97.8z
			 M309.8,105.8c0-1.6-0.7-2.5-2-2.5s-2.3,1-2.3,2.5c0,1.4,1,2.3,2.2,2.3C309.1,108.1,309.8,107,309.8,105.8z"/>
		<path d="M324.8,112.1c0,1.8-1.4,3.2-3.2,3.2c-1.8,0-3.2-1.4-3.2-3.2c0-1.8,1.4-3.2,3.2-3.2C323.4,108.9,324.8,110.4,324.8,112.1z
			 M323.8,112.1c0-1.2-1-2.2-2.2-2.2c-1.3,0-2.3,1-2.3,2.2c0,1.3,1,2.3,2.3,2.3C322.9,114.4,323.8,113.3,323.8,112.1z"/>
	</g>
</g>
</svg>
